<?xml version="1.0" encoding="UTF-8" standalone="no"?>
<!-- Created with Inkscape (http://www.inkscape.org/) -->

<svg
   width="297mm"
   height="210mm"
   viewBox="0 0 297 210"
   version="1.1"
   id="svg5"
   inkscape:version="1.1 (1:1.1+202106032008+af4d65493e)"
   sodipodi:docname="flowChart.svg"
   xmlns:inkscape="http://www.inkscape.org/namespaces/inkscape"
   xmlns:sodipodi="http://sodipodi.sourceforge.net/DTD/sodipodi-0.dtd"
   xmlns="http://www.w3.org/2000/svg"
   xmlns:svg="http://www.w3.org/2000/svg">
  <sodipodi:namedview
     id="namedview7"
     pagecolor="#505050"
     bordercolor="#ffffff"
     borderopacity="1"
     inkscape:pageshadow="0"
     inkscape:pageopacity="0"
     inkscape:pagecheckerboard="1"
     inkscape:document-units="mm"
     showgrid="false"
     inkscape:zoom="0.85418262"
     inkscape:cx="666.71926"
     inkscape:cy="389.84638"
     inkscape:window-width="2560"
     inkscape:window-height="1043"
     inkscape:window-x="0"
     inkscape:window-y="0"
     inkscape:window-maximized="1"
     inkscape:current-layer="layer1"
     inkscape:snap-page="true" />
  <defs
     id="defs2" />
  <g
     inkscape:label="Layer 1"
     inkscape:groupmode="layer"
     id="layer1">
    <rect
       style="fill:#e0ffff;fill-rule:evenodd;stroke-width:0.264583"
       id="rect11344"
       width="297"
       height="210"
       x="0"
       y="0"
       ry="0"
       inkscape:export-filename="/home/wh/FinTech/art_reveal_project_3/Image_Generator/flowChart.png"
       inkscape:export-xdpi="96"
       inkscape:export-ydpi="96" />
    <g
       id="g6827"
       transform="translate(332.23418,5.6587562)">
      <path
         id="path6350"
         style="fill:#00bfff;fill-rule:evenodd;stroke-width:0.176596"
         d="M 7.8060839,6.8184968 H 52.123974 c 0.95737,0 1.72811,0.77218 1.72811,1.73135 V 26.648677 c 0,0.95917 -0.77074,1.73135 -1.72811,1.73135 H 7.8060839 c -0.95736,0 -1.72811,-0.77218 -1.72811,-1.73135 V 8.5498468 c 0,-0.95917 0.77075,-1.73135 1.72811,-1.73135 z" />
      <text
         xml:space="preserve"
         style="font-style:normal;font-variant:normal;font-weight:bold;font-stretch:normal;font-size:12.7px;line-height:1.25;font-family:sans-serif;-inkscape-font-specification:'sans-serif, Bold';font-variant-ligatures:normal;font-variant-caps:normal;font-variant-numeric:normal;font-variant-east-asian:normal;text-align:center;text-anchor:middle;stroke-width:0.264583"
         x="29.527849"
         y="20.907583"
         id="text6356"><tspan
           sodipodi:role="line"
           id="tspan6376"
           x="29.527847"
           y="20.907583">Input</tspan></text>
    </g>
    <g
       id="g2490"
       transform="matrix(0.86804715,0,0,0.86804715,21.746979,6.742899)">
      <path
         id="path6320"
         style="fill:#4343ff;fill-opacity:1;fill-rule:evenodd;stroke-width:0.398055"
         d="m 47.49001,119.77987 h 122.54793 c 2.64733,0 4.77857,1.41878 4.77857,3.18112 v 33.25433 c 0,1.76233 -2.13124,3.18114 -4.77857,3.18114 H 47.49001 c -2.647305,0 -4.778569,-1.41881 -4.778569,-3.18114 v -33.25433 c 0,-1.76234 2.131264,-3.18112 4.778569,-3.18112 z" />
      <text
         xml:space="preserve"
         style="font-style:normal;font-variant:normal;font-weight:bold;font-stretch:normal;font-size:12.7px;line-height:1.25;font-family:sans-serif;-inkscape-font-specification:'sans-serif, Bold';font-variant-ligatures:normal;font-variant-caps:normal;font-variant-numeric:normal;font-variant-east-asian:normal;text-align:center;text-anchor:middle;stroke-width:0.264583"
         x="108.76398"
         y="135.10472"
         id="text6326"><tspan
           sodipodi:role="line"
           id="tspan1960"
           x="108.76398"
           y="135.10472">Variables</tspan><tspan
           sodipodi:role="line"
           id="tspan1962"
           x="108.76398"
           y="150.97972">(python module)</tspan></text>
    </g>
    <g
       id="g1854"
       transform="matrix(0.86804715,0,0,0.86804715,22.708434,1.3192623)">
      <path
         id="path6304"
         style="fill:#f0e68c;fill-rule:evenodd;stroke-width:0.389482"
         d="m 0,16.898263 h 106.18365 c 2.29382,0 4.14045,1.56766 4.14045,3.514935 V 57.15697 c 0,1.947277 -1.84663,3.514941 -4.14045,3.514941 H 0 c -2.293785,0 -4.1404393,-1.567664 -4.1404393,-3.514941 V 20.413198 c 0,-1.947275 1.8466543,-3.514935 4.1404393,-3.514935 z" />
      <text
         xml:space="preserve"
         style="font-style:normal;font-variant:normal;font-weight:bold;font-stretch:normal;font-size:12.9929px;line-height:1.25;font-family:sans-serif;-inkscape-font-specification:'sans-serif, Bold';font-variant-ligatures:normal;font-variant-caps:normal;font-variant-numeric:normal;font-variant-east-asian:normal;text-align:center;text-anchor:middle;stroke-width:0.270685"
         x="54.316292"
         y="33.669655"
         id="text6310"
         transform="scale(0.97745681,1.0230631)"><tspan
           sodipodi:role="line"
           id="tspan1176"
           x="54.316292"
           y="33.669655">User Input</tspan><tspan
           sodipodi:role="line"
           id="tspan1178"
           x="54.316296"
           y="49.910778">(3 letter code)</tspan></text>
    </g>
    <g
       id="g1848"
       transform="matrix(0.86804715,0,0,0.86804715,10.478762,37.426343)">
      <path
         id="path6312"
         style="fill:#00bfff;fill-rule:evenodd;stroke-width:0.367931"
         d="m 13.523017,135.14343 h 91.675603 c 1.98041,0 3.57474,1.62036 3.57474,3.63311 v 37.97906 c 0,2.01274 -1.59433,3.63311 -3.57474,3.63311 H 13.523017 c -1.980392,0 -3.5747372,-1.62037 -3.5747372,-3.63311 v -37.97906 c 0,-2.01275 1.5943452,-3.63311 3.5747372,-3.63311 z" />
      <text
         xml:space="preserve"
         style="font-style:normal;font-variant:normal;font-weight:bold;font-stretch:normal;font-size:12.7px;line-height:1.25;font-family:sans-serif;-inkscape-font-specification:'sans-serif, Bold';font-variant-ligatures:normal;font-variant-caps:normal;font-variant-numeric:normal;font-variant-east-asian:normal;text-align:center;text-anchor:middle;stroke-width:0.264583"
         x="59.360817"
         y="153.7043"
         id="text6318"><tspan
           sodipodi:role="line"
           id="tspan1143"
           x="59.360817"
           y="153.7043">SVG Layers</tspan><tspan
           sodipodi:role="line"
           id="tspan1145"
           x="59.360817"
           y="169.5793">(xml blocks)</tspan></text>
    </g>
    <g
       id="g1940"
       transform="matrix(0.86804715,0,0,0.86804715,39.115317,-9.6956733)">
      <path
         id="path11001"
         style="fill:#90ee90;fill-rule:evenodd;stroke-width:0.421872"
         d="M 87.152399,83.636369 H 214.78172 c 2.75709,0 4.97669,1.530188 4.97669,3.430911 v 35.86544 c 0,1.90072 -2.2196,3.43091 -4.97669,3.43091 H 87.152399 c -2.75707,0 -4.976691,-1.53019 -4.976691,-3.43091 V 87.06728 c 0,-1.900723 2.219621,-3.430911 4.976691,-3.430911 z" />
      <text
         xml:space="preserve"
         style="font-style:normal;font-variant:normal;font-weight:bold;font-stretch:normal;font-size:12.7px;line-height:1.25;font-family:sans-serif;-inkscape-font-specification:'sans-serif, Bold';font-variant-ligatures:normal;font-variant-caps:normal;font-variant-numeric:normal;font-variant-east-asian:normal;text-align:center;text-anchor:middle;stroke-width:0.264583"
         x="150.40276"
         y="100.40493"
         id="text11009"><tspan
           sodipodi:role="line"
           id="tspan1203"
           x="150.40276"
           y="100.40493">Image Generator</tspan><tspan
           sodipodi:role="line"
           id="tspan1205"
           x="150.40276"
           y="116.27993">(python module)</tspan></text>
    </g>
    <g
       id="g1827"
       transform="matrix(0.86804715,0,0,0.86804715,47.685761,-111.43765)">
      <path
         id="path1742"
         style="fill:#cd5c5c;fill-rule:evenodd;stroke-width:0.169099"
         d="m 223.13329,158.75135 h 40.63456 c 0.87781,0 1.58449,0.77218 1.58449,1.73135 v 18.09883 c 0,0.95917 -0.70668,1.73135 -1.58449,1.73135 H 223.1333 c -0.8778,0 -1.58448,-0.77218 -1.58448,-1.73135 V 160.4827 c 0,-0.95917 0.70668,-1.73135 1.58447,-1.73135 z" />
      <text
         xml:space="preserve"
         style="font-style:normal;font-variant:normal;font-weight:bold;font-stretch:normal;font-size:12.7px;line-height:1.25;font-family:sans-serif;-inkscape-font-specification:'sans-serif, Bold';font-variant-ligatures:normal;font-variant-caps:normal;font-variant-numeric:normal;font-variant-east-asian:normal;text-align:center;text-anchor:middle;stroke-width:0.264583"
         x="243.46298"
         y="174.15509"
         id="text6512"><tspan
           sodipodi:role="line"
           id="tspan1634"
           x="243.46298"
           y="174.15509">SVG</tspan></text>
    </g>
    <g
       id="g2576"
       transform="translate(-3.5669665)">
      <path
         id="path1636"
         style="fill:#cd5c5c;fill-rule:evenodd;stroke-width:0.146786"
         d="m 244.94294,101.70598 h 35.27272 c 0.76198,0 1.37541,0.67029 1.37541,1.50289 v 15.71064 c 0,0.8326 -0.61343,1.50289 -1.37541,1.50289 h -35.27271 c -0.76197,0 -1.3754,-0.67029 -1.3754,-1.50289 v -15.71064 c 0,-0.8326 0.61343,-1.50289 1.37539,-1.50289 z" />
      <text
         xml:space="preserve"
         style="font-style:normal;font-variant:normal;font-weight:bold;font-stretch:normal;font-size:11.0242px;line-height:1.25;font-family:sans-serif;-inkscape-font-specification:'sans-serif, Bold';font-variant-ligatures:normal;font-variant-caps:normal;font-variant-numeric:normal;font-variant-east-asian:normal;text-align:center;text-anchor:middle;stroke-width:0.229671"
         x="262.47974"
         y="115.07716"
         id="text1640"><tspan
           sodipodi:role="line"
           id="tspan2571"
           x="262.47974"
           y="115.07716">Log</tspan></text>
    </g>
    <g
       id="g2548"
       transform="matrix(0.86804715,0,0,0.86804715,5.6631122,104.72117)"
       style="opacity:0.58042353">
      <path
         id="path2542"
         style="fill:#cd5c5c;fill-rule:evenodd;stroke-width:0.169099"
         d="m 238.56999,70.712085 h 40.63456 c 0.87781,0 1.58449,0.77218 1.58449,1.73135 v 18.09883 c 0,0.95917 -0.70668,1.73135 -1.58449,1.73135 H 238.57 c -0.8778,0 -1.58448,-0.77218 -1.58448,-1.73135 v -18.09883 c 0,-0.95917 0.70668,-1.73135 1.58447,-1.73135 z" />
      <text
         xml:space="preserve"
         style="font-style:normal;font-variant:normal;font-weight:bold;font-stretch:normal;font-size:12.7px;line-height:1.25;font-family:sans-serif;-inkscape-font-specification:'sans-serif, Bold';font-variant-ligatures:normal;font-variant-caps:normal;font-variant-numeric:normal;font-variant-east-asian:normal;text-align:center;text-anchor:middle;stroke-width:0.264583"
         x="258.77255"
         y="86.115829"
         id="text2546"><tspan
           sodipodi:role="line"
           id="tspan2544"
           x="258.77255"
           y="86.115829">PNG</tspan></text>
    </g>
    <path
       style="fill:none;fill-rule:evenodd;stroke:#000000;stroke-width:0.264583px;stroke-linecap:butt;stroke-linejoin:miter;stroke-opacity:1"
       d="m 84.894357,154.73721 11.224584,-9.63067"
       id="path2618"
       inkscape:connector-type="polyline"
       inkscape:connector-curvature="0"
       inkscape:connection-start="#g1848"
       inkscape:connection-end="#g2490" />
    <path
       style="fill:none;fill-rule:evenodd;stroke:#000000;stroke-width:0.264583px;stroke-linecap:butt;stroke-linejoin:miter;stroke-opacity:1"
       d="m 110.2441,53.985342 19.45912,8.919296"
       id="path2620"
       inkscape:connector-type="polyline"
       inkscape:connector-curvature="0"
       inkscape:connection-start="#g1854"
       inkscape:connection-end="#g1940" />
    <path
       style="fill:none;fill-rule:evenodd;stroke:#000000;stroke-width:0.264583px;stroke-linecap:butt;stroke-linejoin:miter;stroke-opacity:1"
       d="M 136.14406,110.71747 148.60782,99.993916"
       id="path2622"
       inkscape:connector-type="polyline"
       inkscape:connector-curvature="0"
       inkscape:connection-start="#g2490"
       inkscape:connection-end="#g1940" />
    <path
       style="fill:none;fill-rule:evenodd;stroke:#000000;stroke-width:0.264583px;stroke-linecap:butt;stroke-linejoin:miter;stroke-opacity:1"
       d="M 206.1968,62.904638 240.96173,45.013593"
       id="path2624"
       inkscape:connector-type="polyline"
       inkscape:connector-curvature="0"
       inkscape:connection-start="#g1940"
       inkscape:connection-end="#g1827" />
    <path
       style="fill:none;fill-rule:evenodd;stroke:#000000;stroke-width:0.264583px;stroke-linecap:butt;stroke-linejoin:miter;stroke-opacity:1"
       d="m 225.78694,99.989772 14.21364,4.737578"
       id="path2626"
       inkscape:connector-type="polyline"
       inkscape:connector-curvature="0"
       inkscape:connection-start="#g1940"
       inkscape:connection-end="#g2576" />
    <path
       style="fill:none;fill-rule:evenodd;stroke:#000000;stroke-width:0.26458299;stroke-linecap:butt;stroke-linejoin:miter;stroke-opacity:1;stroke-miterlimit:4;stroke-dasharray:1.05833194,1.05833194;stroke-dashoffset:0"
       d="m 182.0423,99.993916 42.35192,66.108674"
       id="path2628"
       inkscape:connector-type="polyline"
       inkscape:connector-curvature="0"
       inkscape:connection-start="#g1940"
       inkscape:connection-end="#g2548" />
  </g>
</svg>
