<?xml version="1.0" encoding="UTF-8" standalone="no"?>
<svg
   width="300mm"
   height="300mm"
   viewBox="0 0 300 300"
   version="1.1"
   id="svg5"
   inkscape:version="1.1 (1:1.1+202106032008+af4d65493e)"
   sodipodi:docname="masterFile.svg"
   xmlns:inkscape="http://www.inkscape.org/namespaces/inkscape"
   xmlns:sodipodi="http://sodipodi.sourceforge.net/DTD/sodipodi-0.dtd"
   xmlns:xlink="http://www.w3.org/1999/xlink"
   xmlns="http://www.w3.org/2000/svg"
   xmlns:svg="http://www.w3.org/2000/svg">
  <sodipodi:namedview
     id="namedview7"
     pagecolor="#505050"
     bordercolor="#ffffff"
     borderopacity="1"
     inkscape:pageshadow="0"
     inkscape:pageopacity="0"
     inkscape:pagecheckerboard="1"
     inkscape:document-units="mm"
     showgrid="false"
     inkscape:zoom="0.30199916"
     inkscape:cx="210.26549"
     inkscape:cy="238.41126"
     inkscape:window-width="2560"
     inkscape:window-height="1043"
     inkscape:window-x="0"
     inkscape:window-y="0"
     inkscape:window-maximized="1"
     inkscape:current-layer="layer8"
     inkscape:snap-page="true"
     inkscape:snap-global="true"
     inkscape:object-paths="true"
     inkscape:snap-intersection-paths="true"
     inkscape:snap-smooth-nodes="true" />
  <defs
     id="defs2">
    <linearGradient
       id="linearGradient7648">
      <stop
         style="stop-color:#bf0d3e;stop-opacity:1"
         offset="0"
         id="stop7644" />
      <stop
         style="stop-color:#bf0d3e;stop-opacity:0"
         offset="1"
         id="stop7646" />
    </linearGradient>
    <linearGradient
       id="linearGradient6662">
      <stop
         style="stop-color:#00205b;stop-opacity:1"
         offset="0"
         id="stop6658" />
      <stop
         style="stop-color:#00205b;stop-opacity:0"
         offset="1"
         id="stop6660" />
    </linearGradient>
    <radialGradient
       xlink:href="#linearGradient6662"
       id="radialGradient8006"
       gradientUnits="userSpaceOnUse"
       gradientTransform="matrix(2,0,0,2,-2.81875e-4,-300.00002)"
       cx="1.0592222e-14"
       cy="300"
       fx="1.0592222e-14"
       fy="300"
       r="150" />
    <radialGradient
       xlink:href="#linearGradient6662"
       id="radialGradient8008"
       gradientUnits="userSpaceOnUse"
       gradientTransform="matrix(2,0,0,2,-299.99983,-599.99999)"
       cx="1.0592222e-14"
       cy="300"
       fx="1.0592222e-14"
       fy="300"
       r="150" />
    <radialGradient
       xlink:href="#linearGradient7648"
       id="radialGradient8010"
       gradientUnits="userSpaceOnUse"
       gradientTransform="matrix(2,0,0,2,-299.99943,-300.00002)"
       cx="1.0592222e-14"
       cy="300"
       fx="1.0592222e-14"
       fy="300"
       r="150" />
    <radialGradient
       xlink:href="#linearGradient7648"
       id="radialGradient8012"
       gradientUnits="userSpaceOnUse"
       gradientTransform="matrix(2,0,0,2,-2.81875e-4,-599.99997)"
       cx="1.0592222e-14"
       cy="300"
       fx="1.0592222e-14"
       fy="300"
       r="150" />
    <linearGradient
       id="linearGradient24021">
      <stop
         style="stop-color:#323729;stop-opacity:1"
         offset="0"
         id="stop24017" />
      <stop
         style="stop-color:#323729;stop-opacity:0"
         offset="1"
         id="stop24019" />
    </linearGradient>
    <radialGradient
       xlink:href="#linearGradient24021"
       id="radialGradient24023"
       cx="-1.9151347e-15"
       cy="300"
       fx="-1.9151347e-15"
       fy="300"
       r="150"
       gradientUnits="userSpaceOnUse"
       gradientTransform="matrix(2,0,0,2,0,-300)" />
    <radialGradient
       xlink:href="#linearGradient24021"
       id="radialGradient24107"
       gradientUnits="userSpaceOnUse"
       gradientTransform="matrix(2,0,0,2,-300,-600)"
       cx="-1.9151347e-15"
       cy="300"
       fx="-1.9151347e-15"
       fy="300"
       r="150" />
    <linearGradient
       id="linearGradient24021-0">
      <stop
         style="stop-color:#63432a;stop-opacity:1"
         offset="0"
         id="stop24017-8" />
      <stop
         style="stop-color:#63432a;stop-opacity:0"
         offset="1"
         id="stop24019-8" />
    </linearGradient>
    <radialGradient
       xlink:href="#linearGradient24021-0"
       id="radialGradient24023-5"
       cx="-1.9151347e-15"
       cy="300"
       fx="-1.9151347e-15"
       fy="300"
       r="150"
       gradientUnits="userSpaceOnUse"
       gradientTransform="matrix(2,0,0,2,0,-300)" />
    <radialGradient
       xlink:href="#linearGradient24021-0"
       id="radialGradient24107-0"
       gradientUnits="userSpaceOnUse"
       gradientTransform="matrix(2,0,0,2,-300,-600)"
       cx="-1.9151347e-15"
       cy="300"
       fx="-1.9151347e-15"
       fy="300"
       r="150" />
    <rect
       x="243.46649"
       y="834.99508"
       width="482.81721"
       height="299.65142"
       id="rect201983" />
    <linearGradient
       inkscape:collect="always"
       id="linearGradient111750">
      <stop
         style="stop-color:#000000;stop-opacity:0.46352127"
         offset="0"
         id="stop111746" />
      <stop
         style="stop-color:#000000;stop-opacity:0"
         offset="1"
         id="stop111748" />
    </linearGradient>
    <filter
       inkscape:collect="always"
       style="color-interpolation-filters:sRGB"
       id="filter87896"
       x="-0.1317142"
       y="-0.092097318"
       width="1.2634284"
       height="1.1841946">
      <feGaussianBlur
         inkscape:collect="always"
         stdDeviation="0.35608277"
         id="feGaussianBlur87898" />
    </filter>
    <linearGradient
       inkscape:collect="always"
       xlink:href="#linearGradient111750"
       id="linearGradient111752"
       x1="113.50005"
       y1="130.23248"
       x2="124.63548"
       y2="147.72809"
       gradientUnits="userSpaceOnUse" />
    <linearGradient
       inkscape:collect="always"
       id="linearGradient42160">
      <stop
         style="stop-color:#1a1a1a;stop-opacity:1;"
         offset="0"
         id="stop42156" />
      <stop
         style="stop-color:#2b2b2b;stop-opacity:1"
         offset="1"
         id="stop42158" />
    </linearGradient>
    <rect
       x="243.46649"
       y="834.99508"
       width="482.81721"
       height="299.65142"
       id="rect201983-4" />
    <linearGradient
       inkscape:collect="always"
       xlink:href="#linearGradient42160"
       id="linearGradient42162"
       x1="-285.29416"
       y1="164.98166"
       x2="-267.35732"
       y2="164.98166"
       gradientUnits="userSpaceOnUse"
       gradientTransform="matrix(3.2936646,0,0,3.7795276,-145.87567,0)" />
    <linearGradient
       inkscape:collect="always"
       xlink:href="#linearGradient42160"
       id="linearGradient5194"
       gradientUnits="userSpaceOnUse"
       gradientTransform="matrix(3.2936646,0,0,3.7795276,-145.87567,0)"
       x1="-285.29416"
       y1="164.98166"
       x2="-267.35732"
       y2="164.98166" />
    <linearGradient
       inkscape:collect="always"
       xlink:href="#linearGradient42160"
       id="linearGradient5196"
       gradientUnits="userSpaceOnUse"
       gradientTransform="matrix(3.2936646,0,0,3.7795276,-145.87567,0)"
       x1="-285.29416"
       y1="164.98166"
       x2="-267.35732"
       y2="164.98166" />
    <linearGradient
       inkscape:collect="always"
       xlink:href="#linearGradient42160"
       id="linearGradient5198"
       gradientUnits="userSpaceOnUse"
       gradientTransform="matrix(3.2936646,0,0,3.7795276,-145.87567,0)"
       x1="-285.29416"
       y1="164.98166"
       x2="-267.35732"
       y2="164.98166" />
    <linearGradient
       inkscape:collect="always"
       xlink:href="#linearGradient42160"
       id="linearGradient5200"
       gradientUnits="userSpaceOnUse"
       gradientTransform="matrix(3.2936646,0,0,3.7795276,-145.87567,0)"
       x1="-285.29416"
       y1="164.98166"
       x2="-267.35732"
       y2="164.98166" />
    <linearGradient
       inkscape:collect="always"
       xlink:href="#linearGradient42160"
       id="linearGradient5202"
       gradientUnits="userSpaceOnUse"
       gradientTransform="matrix(3.2936646,0,0,3.7795276,-145.87567,0)"
       x1="-285.29416"
       y1="164.98166"
       x2="-267.35732"
       y2="164.98166" />
    <linearGradient
       inkscape:collect="always"
       xlink:href="#linearGradient42160"
       id="linearGradient5204"
       gradientUnits="userSpaceOnUse"
       gradientTransform="matrix(3.2936646,0,0,3.7795276,-145.87567,0)"
       x1="-285.29416"
       y1="164.98166"
       x2="-267.35732"
       y2="164.98166" />
    <linearGradient
       inkscape:collect="always"
       xlink:href="#linearGradient42160"
       id="linearGradient5206"
       gradientUnits="userSpaceOnUse"
       gradientTransform="matrix(3.2936646,0,0,3.7795276,-145.87567,0)"
       x1="-285.29416"
       y1="164.98166"
       x2="-267.35732"
       y2="164.98166" />
    <linearGradient
       inkscape:collect="always"
       xlink:href="#linearGradient42160"
       id="linearGradient5208"
       gradientUnits="userSpaceOnUse"
       gradientTransform="matrix(3.2936646,0,0,3.7795276,-145.87567,0)"
       x1="-285.29416"
       y1="164.98166"
       x2="-267.35732"
       y2="164.98166" />
    <linearGradient
       inkscape:collect="always"
       xlink:href="#linearGradient42160"
       id="linearGradient5210"
       gradientUnits="userSpaceOnUse"
       gradientTransform="matrix(3.2936646,0,0,3.7795276,-145.87567,0)"
       x1="-285.29416"
       y1="164.98166"
       x2="-267.35732"
       y2="164.98166" />
    <linearGradient
       inkscape:collect="always"
       xlink:href="#linearGradient42160"
       id="linearGradient5212"
       gradientUnits="userSpaceOnUse"
       gradientTransform="matrix(3.2936646,0,0,3.7795276,-145.87567,0)"
       x1="-285.29416"
       y1="164.98166"
       x2="-267.35732"
       y2="164.98166" />
    <linearGradient
       inkscape:collect="always"
       xlink:href="#linearGradient42160"
       id="linearGradient5214"
       gradientUnits="userSpaceOnUse"
       gradientTransform="matrix(3.2936646,0,0,3.7795276,-145.87567,0)"
       x1="-285.29416"
       y1="164.98166"
       x2="-267.35732"
       y2="164.98166" />
    <linearGradient
       inkscape:collect="always"
       xlink:href="#linearGradient42160"
       id="linearGradient5216"
       gradientUnits="userSpaceOnUse"
       gradientTransform="matrix(3.2936646,0,0,3.7795276,-145.87567,0)"
       x1="-285.29416"
       y1="164.98166"
       x2="-267.35732"
       y2="164.98166" />
    <linearGradient
       inkscape:collect="always"
       xlink:href="#linearGradient42160"
       id="linearGradient5218"
       gradientUnits="userSpaceOnUse"
       gradientTransform="matrix(3.2936646,0,0,3.7795276,-145.87567,0)"
       x1="-285.29416"
       y1="164.98166"
       x2="-267.35732"
       y2="164.98166" />
    <linearGradient
       inkscape:collect="always"
       xlink:href="#linearGradient42160"
       id="linearGradient5220"
       gradientUnits="userSpaceOnUse"
       gradientTransform="matrix(3.2936646,0,0,3.7795276,-145.87567,0)"
       x1="-285.29416"
       y1="164.98166"
       x2="-267.35732"
       y2="164.98166" />
    <linearGradient
       inkscape:collect="always"
       xlink:href="#linearGradient42160"
       id="linearGradient5222"
       gradientUnits="userSpaceOnUse"
       gradientTransform="matrix(3.2936646,0,0,3.7795276,-145.87567,0)"
       x1="-285.29416"
       y1="164.98166"
       x2="-267.35732"
       y2="164.98166" />
    <linearGradient
       inkscape:collect="always"
       xlink:href="#linearGradient42160"
       id="linearGradient5224"
       gradientUnits="userSpaceOnUse"
       gradientTransform="matrix(3.2936646,0,0,3.7795276,-145.87567,0)"
       x1="-285.29416"
       y1="164.98166"
       x2="-267.35732"
       y2="164.98166" />
    <linearGradient
       inkscape:collect="always"
       xlink:href="#linearGradient42160"
       id="linearGradient5226"
       gradientUnits="userSpaceOnUse"
       gradientTransform="matrix(3.2936646,0,0,3.7795276,-145.87567,0)"
       x1="-285.29416"
       y1="164.98166"
       x2="-267.35732"
       y2="164.98166" />
    <linearGradient
       inkscape:collect="always"
       xlink:href="#linearGradient42160"
       id="linearGradient5228"
       gradientUnits="userSpaceOnUse"
       gradientTransform="matrix(3.2936646,0,0,3.7795276,-145.87567,0)"
       x1="-285.29416"
       y1="164.98166"
       x2="-267.35732"
       y2="164.98166" />
    <linearGradient
       inkscape:collect="always"
       xlink:href="#linearGradient42160"
       id="linearGradient5230"
       gradientUnits="userSpaceOnUse"
       gradientTransform="matrix(3.2936646,0,0,3.7795276,-145.87567,0)"
       x1="-285.29416"
       y1="164.98166"
       x2="-267.35732"
       y2="164.98166" />
    <linearGradient
       inkscape:collect="always"
       xlink:href="#linearGradient42160"
       id="linearGradient5232"
       gradientUnits="userSpaceOnUse"
       gradientTransform="matrix(3.2936646,0,0,3.7795276,-145.87567,0)"
       x1="-285.29416"
       y1="164.98166"
       x2="-267.35732"
       y2="164.98166" />
    <linearGradient
       inkscape:collect="always"
       xlink:href="#linearGradient42160"
       id="linearGradient5234"
       gradientUnits="userSpaceOnUse"
       gradientTransform="matrix(3.2936646,0,0,3.7795276,-145.87567,0)"
       x1="-285.29416"
       y1="164.98166"
       x2="-267.35732"
       y2="164.98166" />
    <linearGradient
       inkscape:collect="always"
       xlink:href="#linearGradient42160"
       id="linearGradient5236"
       gradientUnits="userSpaceOnUse"
       gradientTransform="matrix(3.2936646,0,0,3.7795276,-145.87567,0)"
       x1="-285.29416"
       y1="164.98166"
       x2="-267.35732"
       y2="164.98166" />
    <linearGradient
       inkscape:collect="always"
       xlink:href="#linearGradient42160"
       id="linearGradient5238"
       gradientUnits="userSpaceOnUse"
       gradientTransform="matrix(3.2936646,0,0,3.7795276,-145.87567,0)"
       x1="-285.29416"
       y1="164.98166"
       x2="-267.35732"
       y2="164.98166" />
    <linearGradient
       inkscape:collect="always"
       xlink:href="#linearGradient42160"
       id="linearGradient5240"
       gradientUnits="userSpaceOnUse"
       gradientTransform="matrix(3.2936646,0,0,3.7795276,-145.87567,0)"
       x1="-285.29416"
       y1="164.98166"
       x2="-267.35732"
       y2="164.98166" />
    <linearGradient
       inkscape:collect="always"
       xlink:href="#linearGradient42160"
       id="linearGradient5244"
       gradientUnits="userSpaceOnUse"
       gradientTransform="matrix(3.2936646,0,0,3.7795276,-145.87567,0)"
       x1="-285.29416"
       y1="164.98166"
       x2="-267.35732"
       y2="164.98166" />
    <linearGradient
       inkscape:collect="always"
       xlink:href="#linearGradient42160"
       id="linearGradient5246"
       gradientUnits="userSpaceOnUse"
       gradientTransform="matrix(3.2936646,0,0,3.7795276,-145.87567,0)"
       x1="-285.29416"
       y1="164.98166"
       x2="-267.35732"
       y2="164.98166" />
    <linearGradient
       inkscape:collect="always"
       xlink:href="#linearGradient42160"
       id="linearGradient5248"
       gradientUnits="userSpaceOnUse"
       gradientTransform="matrix(3.2936646,0,0,3.7795276,-145.87567,0)"
       x1="-285.29416"
       y1="164.98166"
       x2="-267.35732"
       y2="164.98166" />
    <linearGradient
       inkscape:collect="always"
       xlink:href="#linearGradient42160"
       id="linearGradient5410"
       gradientUnits="userSpaceOnUse"
       gradientTransform="matrix(3.2936646,0,0,3.7795276,-145.87567,0)"
       x1="-285.29416"
       y1="164.98166"
       x2="-267.35732"
       y2="164.98166" />
    <linearGradient
       inkscape:collect="always"
       xlink:href="#linearGradient42160"
       id="linearGradient5412"
       gradientUnits="userSpaceOnUse"
       gradientTransform="matrix(3.2936646,0,0,3.7795276,-145.87567,0)"
       x1="-285.29416"
       y1="164.98166"
       x2="-267.35732"
       y2="164.98166" />
    <linearGradient
       inkscape:collect="always"
       xlink:href="#linearGradient42160"
       id="linearGradient5414"
       gradientUnits="userSpaceOnUse"
       gradientTransform="matrix(3.2936646,0,0,3.7795276,-145.87567,0)"
       x1="-285.29416"
       y1="164.98166"
       x2="-267.35732"
       y2="164.98166" />
    <linearGradient
       inkscape:collect="always"
       xlink:href="#linearGradient42160"
       id="linearGradient5416"
       gradientUnits="userSpaceOnUse"
       gradientTransform="matrix(3.2936646,0,0,3.7795276,-145.87567,0)"
       x1="-285.29416"
       y1="164.98166"
       x2="-267.35732"
       y2="164.98166" />
    <linearGradient
       inkscape:collect="always"
       xlink:href="#linearGradient42160"
       id="linearGradient5418"
       gradientUnits="userSpaceOnUse"
       gradientTransform="matrix(3.2936646,0,0,3.7795276,-145.87567,0)"
       x1="-285.29416"
       y1="164.98166"
       x2="-267.35732"
       y2="164.98166" />
    <linearGradient
       inkscape:collect="always"
       xlink:href="#linearGradient42160"
       id="linearGradient5420"
       gradientUnits="userSpaceOnUse"
       gradientTransform="matrix(3.2936646,0,0,3.7795276,-145.87567,0)"
       x1="-285.29416"
       y1="164.98166"
       x2="-267.35732"
       y2="164.98166" />
    <linearGradient
       inkscape:collect="always"
       xlink:href="#linearGradient42160"
       id="linearGradient5422"
       gradientUnits="userSpaceOnUse"
       gradientTransform="matrix(3.2936646,0,0,3.7795276,-145.87567,0)"
       x1="-285.29416"
       y1="164.98166"
       x2="-267.35732"
       y2="164.98166" />
    <linearGradient
       inkscape:collect="always"
       xlink:href="#linearGradient42160"
       id="linearGradient5424"
       gradientUnits="userSpaceOnUse"
       gradientTransform="matrix(3.2936646,0,0,3.7795276,-145.87567,0)"
       x1="-285.29416"
       y1="164.98166"
       x2="-267.35732"
       y2="164.98166" />
    <linearGradient
       inkscape:collect="always"
       xlink:href="#linearGradient42160"
       id="linearGradient5426"
       gradientUnits="userSpaceOnUse"
       gradientTransform="matrix(3.2936646,0,0,3.7795276,-145.87567,0)"
       x1="-285.29416"
       y1="164.98166"
       x2="-267.35732"
       y2="164.98166" />
    <linearGradient
       inkscape:collect="always"
       xlink:href="#linearGradient42160"
       id="linearGradient5428"
       gradientUnits="userSpaceOnUse"
       gradientTransform="matrix(3.2936646,0,0,3.7795276,-145.87567,0)"
       x1="-285.29416"
       y1="164.98166"
       x2="-267.35732"
       y2="164.98166" />
    <linearGradient
       inkscape:collect="always"
       xlink:href="#linearGradient42160"
       id="linearGradient5430"
       gradientUnits="userSpaceOnUse"
       gradientTransform="matrix(3.2936646,0,0,3.7795276,-145.87567,0)"
       x1="-285.29416"
       y1="164.98166"
       x2="-267.35732"
       y2="164.98166" />
    <linearGradient
       inkscape:collect="always"
       xlink:href="#linearGradient42160"
       id="linearGradient5432"
       gradientUnits="userSpaceOnUse"
       gradientTransform="matrix(3.2936646,0,0,3.7795276,-145.87567,0)"
       x1="-285.29416"
       y1="164.98166"
       x2="-267.35732"
       y2="164.98166" />
    <linearGradient
       inkscape:collect="always"
       xlink:href="#linearGradient42160"
       id="linearGradient5434"
       gradientUnits="userSpaceOnUse"
       gradientTransform="matrix(3.2936646,0,0,3.7795276,-145.87567,0)"
       x1="-285.29416"
       y1="164.98166"
       x2="-267.35732"
       y2="164.98166" />
    <linearGradient
       inkscape:collect="always"
       xlink:href="#linearGradient42160"
       id="linearGradient5436"
       gradientUnits="userSpaceOnUse"
       gradientTransform="matrix(3.2936646,0,0,3.7795276,-145.87567,0)"
       x1="-285.29416"
       y1="164.98166"
       x2="-267.35732"
       y2="164.98166" />
    <linearGradient
       inkscape:collect="always"
       xlink:href="#linearGradient42160"
       id="linearGradient5438"
       gradientUnits="userSpaceOnUse"
       gradientTransform="matrix(3.2936646,0,0,3.7795276,-145.87567,0)"
       x1="-285.29416"
       y1="164.98166"
       x2="-267.35732"
       y2="164.98166" />
    <linearGradient
       inkscape:collect="always"
       xlink:href="#linearGradient42160"
       id="linearGradient5440"
       gradientUnits="userSpaceOnUse"
       gradientTransform="matrix(3.2936646,0,0,3.7795276,-145.87567,0)"
       x1="-285.29416"
       y1="164.98166"
       x2="-267.35732"
       y2="164.98166" />
    <linearGradient
       inkscape:collect="always"
       xlink:href="#linearGradient42160"
       id="linearGradient5442"
       gradientUnits="userSpaceOnUse"
       gradientTransform="matrix(3.2936646,0,0,3.7795276,-145.87567,0)"
       x1="-285.29416"
       y1="164.98166"
       x2="-267.35732"
       y2="164.98166" />
    <linearGradient
       inkscape:collect="always"
       xlink:href="#linearGradient42160"
       id="linearGradient5444"
       gradientUnits="userSpaceOnUse"
       gradientTransform="matrix(3.2936646,0,0,3.7795276,-145.87567,0)"
       x1="-285.29416"
       y1="164.98166"
       x2="-267.35732"
       y2="164.98166" />
    <linearGradient
       inkscape:collect="always"
       xlink:href="#linearGradient42160"
       id="linearGradient5446"
       gradientUnits="userSpaceOnUse"
       gradientTransform="matrix(3.2936646,0,0,3.7795276,-145.87567,0)"
       x1="-285.29416"
       y1="164.98166"
       x2="-267.35732"
       y2="164.98166" />
    <rect
       x="243.46649"
       y="834.99508"
       width="482.81721"
       height="299.65142"
       id="rect201983-3" />
    <linearGradient
       inkscape:collect="always"
       id="linearGradient154712">
      <stop
         style="stop-color:#000c1c;stop-opacity:1"
         offset="0"
         id="stop154708" />
      <stop
         style="stop-color:#001531;stop-opacity:1"
         offset="1"
         id="stop154710" />
    </linearGradient>
    <rect
       x="243.46649"
       y="834.99508"
       width="482.81721"
       height="299.65142"
       id="rect201983-47" />
    <clipPath
       clipPathUnits="userSpaceOnUse"
       id="clipPath116759">
      <path
         id="path116761"
         style="font-variation-settings:normal;display:inline;opacity:1;vector-effect:none;fill:#00bfff;fill-opacity:1;stroke:none;stroke-width:1.05833;stroke-linecap:butt;stroke-linejoin:miter;stroke-miterlimit:4;stroke-dasharray:none;stroke-dashoffset:0;stroke-opacity:1;-inkscape-stroke:none;stop-color:#000000;stop-opacity:1"
         d="m 237.01395,245.10287 c -5.27216,8.88108 -28.64439,7.00202 -27.59314,4.44934 0,0 -5.08205,19.02997 -11.26702,21.35115 -6.3258,2.37403 -26.26248,-6.84455 -26.26248,-6.84455 0,0 -10.28585,16.09192 -16.46256,17.36122 -5.84548,1.20123 -16.18299,-17.98081 -16.18299,-17.98081 0,0 -23.49684,17.32723 -30.39349,14.76137 -6.31301,-2.34872 -6.39806,-22.77122 -6.39806,-22.77122 0,0 -17.716678,1.2706 -19.452043,-5.76244 0.712367,-0.58287 1.448324,-1.15548 2.194701,-1.72444 -5.569908,2.56914 -9.975559,5.03607 -12.397177,7.20421 -12.657415,11.33251 -8.488889,86.4464 -8.488889,86.4464 H 253.42897 c 0,0 1.01373,-14.38826 7.0466,-39.28081 6.03287,-24.89256 -18.45175,-51.83848 -21.59765,-56.03947 -0.23786,-0.31764 -0.9057,-0.71675 -1.86397,-1.16995 z"
         sodipodi:nodetypes="ccscscscccsccssc" />
    </clipPath>
    <radialGradient
       inkscape:collect="always"
       xlink:href="#linearGradient154712"
       id="radialGradient154714"
       cx="432.82227"
       cy="473.26151"
       fx="432.82227"
       fy="473.26151"
       r="62.79492"
       gradientTransform="matrix(-2.3981059,-0.22885758,0.03982089,-0.41726693,1451.9302,771.98612)"
       gradientUnits="userSpaceOnUse" />
    <linearGradient
       inkscape:collect="always"
       xlink:href="#linearGradient111750"
       id="linearGradient8594"
       gradientUnits="userSpaceOnUse"
       x1="113.50005"
       y1="130.23248"
       x2="124.63548"
       y2="147.72809"
       gradientTransform="translate(-1.4199348)" />
    <linearGradient
       inkscape:collect="always"
       xlink:href="#linearGradient111750"
       id="linearGradient45118"
       gradientUnits="userSpaceOnUse"
       gradientTransform="translate(-1.4199348)"
       x1="113.50005"
       y1="130.23248"
       x2="124.63548"
       y2="147.72809" />
  </defs>
<g
     inkscape:groupmode="layer"
     id="layer2"
     inkscape:label="Background - Green"
     sodipodi:insensitive="true"
     style="display:inline">
    <g
       id="Background - Green">
      <rect
         style="fill:#70743a;fill-opacity:1;fill-rule:evenodd;stroke-width:0.264583"
         id="rect23677"
         width="300"
         height="300"
         x="0"
         y="0" />
      <rect
         style="fill:url(#radialGradient24023);fill-opacity:1;fill-rule:evenodd;stroke-width:0.264583"
         id="rect24015"
         width="300"
         height="300"
         x="0"
         y="0" />
      <rect
         style="fill:url(#radialGradient24107);fill-opacity:1;fill-rule:evenodd;stroke-width:0.264583"
         id="rect24105"
         width="300"
         height="300"
         x="-300"
         y="-300"
         transform="scale(-1)" />
    </g>
  </g>
    <g
     inkscape:groupmode="layer"
     id="layer4"
     inkscape:label="Eagle"
     sodipodi:insensitive="true"
     style="display:inline">
    <g
       id="g1151"
       transform="translate(-1.4199348)">
      <g
         id="layer2-1"
         inkscape:label="Body"
         style="display:inline;opacity:1">
        <path
           style="font-variation-settings:normal;opacity:1;vector-effect:none;fill:#282727;fill-opacity:1;stroke:none;stroke-width:1.05833;stroke-linecap:butt;stroke-linejoin:miter;stroke-miterlimit:4;stroke-dasharray:none;stroke-dashoffset:0;stroke-opacity:1;-inkscape-stroke:none;stop-color:#000000;stop-opacity:1"
           d="m 53.189936,300 c 0,0 -4.16832,-75.11401 8.489095,-86.44652 12.657415,-11.3325 79.252519,-30.81168 85.503189,-30.53702 6.25066,0.27466 77.4291,17.46217 80.57501,21.66316 3.1459,4.20099 27.63069,31.14684 21.59782,56.0394 C 243.32218,285.61157 242.30823,300 242.30823,300 Z"
           id="path1072" />
      </g>
      <g
         id="layer6"
         inkscape:label="Head 2"
         style="display:inline">
        <path
           style="font-variation-settings:normal;opacity:1;vector-effect:none;fill:#ffffff;fill-opacity:1;stroke:none;stroke-width:1.05833;stroke-linecap:butt;stroke-linejoin:miter;stroke-miterlimit:4;stroke-dasharray:none;stroke-dashoffset:0;stroke-opacity:1;-inkscape-stroke:none;stop-color:#000000;stop-opacity:1"
           d="m 71.881433,208.07356 c 1.735365,7.03304 19.452083,5.76245 19.452083,5.76245 0,0 0.08502,20.42249 6.398027,22.77121 6.896647,2.56586 30.393357,-14.76141 30.393357,-14.76141 0,0 10.33737,19.18208 16.18285,17.98085 6.17671,-1.2693 16.46304,-17.36122 16.46304,-17.36122 0,0 19.93654,9.21859 26.26234,6.84456 6.18497,-2.32118 11.2671,-21.35108 11.2671,-21.35108 -1.05161,2.55357 22.33791,4.43322 27.59935,-4.4584 -14.69653,-17.84933 15.69135,-48.51054 -47.42956,-109.23479 -22.75647,8.74897 -61.05768,-7.008413 -64.5602,34.9547 l 3.3494,36.21417 c -10.6666,23.05723 -31.481679,31.26887 -45.377787,42.63896 z"
           id="path137048"
           sodipodi:nodetypes="ccscscscccccc" />
        <path
           id="path207464"
           style="font-variation-settings:normal;opacity:1;vector-effect:none;fill:#dfdfdf;fill-opacity:1;stroke:none;stroke-width:3.99999;stroke-linecap:butt;stroke-linejoin:miter;stroke-miterlimit:4;stroke-dasharray:none;stroke-dashoffset:0;stroke-opacity:1;-inkscape-stroke:none;stop-color:#000000;stop-opacity:1"
           d="m 506.84269,701.93218 c 0,10e-6 -49.55157,59.47944 -72.27348,46.744 -12.84612,-7.20015 -5.13757,-64.62345 -5.13757,-64.62345 0,0 -47.92858,36.49537 -76.17773,44.91797 -0.0352,0.0105 -0.0742,0.0188 -0.10938,0.0293 -28.5274,20.8927 -57.67539,37.95329 -81.4668,57.41992 6.55886,26.58157 73.51954,21.7793 73.51954,21.7793 0,0 0.32145,77.1874 24.18164,86.06445 26.06606,9.69774 114.87304,-55.79101 114.87304,-55.79101 0,0 39.07091,72.49906 61.16407,67.95898 23.34504,-4.79735 62.2207,-65.61719 62.2207,-65.61719 0,0 75.35123,34.84186 99.25976,25.86914 23.37627,-8.77296 42.58399,-80.69726 42.58399,-80.69726 -3.97459,9.65129 84.42674,16.75651 104.3125,-16.84961 -14.89713,-18.09296 -17.5148,-39.7165 -18.00391,-66.0332 -0.36314,-0.0418 -0.77643,-0.0629 -1.13281,-0.10743 -28.67172,-3.58148 -82.75,-25.81836 -82.75,-25.81836 0,0 -27.56441,61.09691 -50.41275,68.42495 -23.78836,7.62953 -75.07464,-39.62948 -75.07464,-39.62948 0,0 -36.84193,76.83607 -59.55931,76.69434 -24.74245,-0.1542 -60.01686,-80.73536 -60.01686,-80.73536 z"
           transform="scale(0.26458333)"
           sodipodi:nodetypes="cscscccscscscccccscsc" />
      </g>
      <g
         id="layer5"
         inkscape:label="Beak"
         style="display:inline;opacity:1">
        <path
           id="path49082"
           style="font-variation-settings:normal;opacity:0.99;vector-effect:none;fill:#e8ae4d;fill-opacity:1;stroke:none;stroke-width:3.99999;stroke-linecap:butt;stroke-linejoin:miter;stroke-miterlimit:4;stroke-dasharray:none;stroke-dashoffset:0;stroke-opacity:1;-inkscape-stroke:none;stop-color:#000000;stop-opacity:1"
           d="m 594.14844,458.94336 c -35.69134,0.44885 -84.80602,30.81227 -120.52344,32.88281 -1.77895,-11.22625 4.41985,-26.68754 -19.55664,-26.13086 0,0 -29.59735,11.25124 -45.95703,17.55274 -82.31389,31.70608 -49.10597,169.26858 -33.53321,181.26367 0.85133,-18.78898 -5.06527,-43.8775 8.51563,-50.81641 0,0 26.05473,0.56605 41.39844,-2.17773 15.34371,-2.74375 40.46541,-11.29836 59.32226,-12.39453 18.85686,-1.09618 54.99805,6.53906 54.99805,6.53906 0,0 45.54026,-18.59165 61.67578,-36.12109 14.22594,-15.45491 28.34844,-35.0551 31.7461,-55.73243 9.5732,-7.56243 18.59551,-15.39759 27.47656,-17.95507 -14.43427,-8.02826 -40.74382,-37.22228 -65.5625,-36.91016 z"
           sodipodi:nodetypes="sccsccsscsccs"
           transform="scale(0.26458333)" />
        <path
           style="font-variation-settings:normal;opacity:1;fill:none;fill-opacity:1;stroke:none;stroke-width:1.058;stroke-linecap:round;stroke-linejoin:miter;stroke-miterlimit:4;stroke-dasharray:none;stroke-dashoffset:0;stroke-opacity:1;stop-color:#000000;stop-opacity:1"
           d="m 99.106944,175.81885 c -1.407177,-6.07811 -0.366315,-15.52143 3.258026,-18.12231 13.97891,-10.03146 28.2873,-1.67024 53.89559,-6.65001"
           id="path84544"
           sodipodi:nodetypes="csc" />
        <path
           id="circle106191"
           style="opacity:1;fill:#000000;fill-opacity:1;fill-rule:evenodd;stroke:none;stroke-width:5.00428;stroke-linecap:round;stroke-linejoin:round"
           d="m 595.66406,466.88477 a 29.005935,29.005935 0 0 0 -27.14648,18.82812 l -0.006,-0.0234 c -2.80929,6.12798 -5.64287,12.17976 -9.22461,15.92969 5.76564,3.24117 10.09781,8.66612 14.75977,13.58789 a 29.005935,29.005935 0 0 0 1.95703,2.00586 c 0.0131,0.0129 0.026,0.0262 0.0391,0.0391 l -0.002,-0.006 a 29.005935,29.005935 0 0 0 19.62304,7.65235 29.005935,29.005935 0 0 0 29.00782,-29.00586 29.005935,29.005935 0 0 0 -29.00782,-29.00781 z"
           transform="scale(0.26458333)" />
        <circle
           style="opacity:1;fill:#b0e0e6;fill-opacity:1;fill-rule:evenodd;stroke:none;stroke-width:1.058;stroke-linecap:round;stroke-linejoin:round;stroke-miterlimit:4;stroke-dasharray:none"
           id="path86496"
           cx="157.60303"
           cy="131.20467"
           r="6.1323905" />
        <circle
           style="opacity:1;fill:#000000;fill-opacity:1;fill-rule:evenodd;stroke:none;stroke-width:0.514414;stroke-linecap:round;stroke-linejoin:round;stroke-miterlimit:4;stroke-dasharray:none"
           id="circle87669"
           cx="157.60303"
           cy="131.20467"
           r="2.9816492" />
        <path
           id="circle87769"
           style="opacity:1;fill:#ffffff;fill-rule:evenodd;stroke:none;stroke-width:0.305976;stroke-linecap:round;stroke-linejoin:round;filter:url(#filter87896)"
           d="m 596.98828,491.41797 a 1.7734992,1.7734992 0 0 0 -1.77344,1.77344 1.7734992,1.7734992 0 0 0 1.77344,1.77343 1.7734992,1.7734992 0 0 0 1.77344,-1.77343 1.7734992,1.7734992 0 0 0 -1.77344,-1.77344 z m -3.91211,7.67383 a 0.80257606,0.80257606 0 0 0 -0.80273,0.80273 0.80257606,0.80257606 0 0 0 0.80273,0.80274 0.80257606,0.80257606 0 0 0 0.80274,-0.80274 0.80257606,0.80257606 0 0 0 -0.80274,-0.80273 z"
           transform="scale(0.26458333)" />
        <path
           style="font-variation-settings:normal;opacity:1;vector-effect:none;fill:url(#linearGradient111752);fill-opacity:1;stroke:none;stroke-width:1.05833;stroke-linecap:butt;stroke-linejoin:miter;stroke-miterlimit:4;stroke-dasharray:none;stroke-dashoffset:0;stroke-opacity:1;-inkscape-stroke:none;stop-color:#000000;stop-opacity:1"
           d="m 124.31853,147.60999 c -2.04396,-3.38892 -6.5572,-5.59003 -8.35595,-9.36809 -0.83101,-1.74542 -2.52238,-4.6349 -0.92594,-5.72506 2.02377,-1.38197 4.85728,1.77796 6.33252,3.73478 2.35479,3.1235 1.39373,6.52866 2.94937,11.35837 z"
           id="path111345"
           sodipodi:nodetypes="caaac" />
        <path
           id="path111923"
           style="font-variation-settings:normal;opacity:1;vector-effect:none;fill:#000000;fill-opacity:1;stroke:none;stroke-width:3.99999;stroke-linecap:butt;stroke-linejoin:miter;stroke-miterlimit:4;stroke-dasharray:none;stroke-dashoffset:0;stroke-opacity:1;-inkscape-stroke:none;stop-color:#000000;stop-opacity:1"
           d="m 438.95703,499.56836 c -1.45387,-0.006 -2.85917,0.38547 -4.17383,1.2832 -3.61149,2.46618 -2.77009,7.36887 -0.83984,12.32227 7.82284,4.36714 17.23539,6.94704 24.66602,6.82226 0.95624,-0.0161 1.9602,-0.15589 2.97265,-0.40234 -0.77801,-1.56648 -1.71597,-3.10511 -2.86328,-4.62695 -4.61739,-6.1247 -12.75673,-15.36841 -19.76172,-15.39844 z"
           transform="scale(0.26458333)" />
        <path
           style="font-variation-settings:normal;opacity:1;vector-effect:none;fill:#dfdfdf;fill-opacity:1;stroke:none;stroke-width:1.05833;stroke-linecap:butt;stroke-linejoin:miter;stroke-miterlimit:4;stroke-dasharray:none;stroke-dashoffset:0;stroke-opacity:1;-inkscape-stroke:none;stop-color:#000000;stop-opacity:1"
           d="m 120.13892,123.21521 c 2.9171,1.47524 3.35712,5.03258 4.66508,7.62712 17.57079,1.38573 34.26968,-9.67434 51.12522,-5.23488 -2.95103,-5.71681 -5.06412,-12.04961 -11.16393,-15.45164 -13.36117,2.37266 -23.7619,7.98794 -33.79554,14.00529 -2.5309,-2.33299 -3.91479,-6.81008 -10.83083,-0.94589 z"
           id="path118857"
           sodipodi:nodetypes="cccccc" />
        <path
           id="path151166"
           style="color:#000000;fill:#000000;stroke-width:3.77953;-inkscape-stroke:none"
           d="m 590.37305,573.92773 c -36.66958,3.07337 -77.65815,2.68681 -115.13477,6.90235 -36.54102,4.11029 -69.76566,12.59346 -92.40234,33.0332 0.0924,-0.0499 0.16354,-0.1198 0.25781,-0.16797 0,0 1.0677,0.008 1.38477,0.0137 22.3654,-19.57905 54.94708,-27.8712 90.87109,-31.9121 37.39147,-4.20594 78.36888,-3.81554 115.10547,-6.89454 z"
           transform="scale(0.26458333)" />
      </g>
    </g>
  </g>
    <g
     inkscape:groupmode="layer"
     id="layer8"
     inkscape:label="Privateer"
     style="display:inline"
     sodipodi:insensitive="true">
    <g
       id="layer1-0"
       inkscape:label="Privateer"
       transform="translate(-1.4199098,2.3336286e-4)">
      <path
         style="font-variation-settings:normal;opacity:1;vector-effect:none;fill:#ffd700;fill-opacity:1;stroke:none;stroke-width:1.12416;stroke-linecap:butt;stroke-linejoin:miter;stroke-miterlimit:4;stroke-dasharray:none;stroke-dashoffset:0;stroke-opacity:1;-inkscape-stroke:none;stop-color:#000000;stop-opacity:1"
         d="M 44.248457,149.57505 C 69.791798,145.26283 136.35449,94.869311 181.904,109.37072 c 33.62235,10.70421 55.6664,73.79657 65.751,82.95895 C 241.31904,176.41913 233.57157,55.462561 180.37291,42.388033 124.28865,28.604316 69.294206,147.91304 44.248457,149.57505 Z"
         id="path38907"
         sodipodi:nodetypes="cacac" />
      <path
         style="font-variation-settings:normal;opacity:1;vector-effect:none;fill:#000000;fill-opacity:1;stroke:none;stroke-width:1.05833;stroke-linecap:butt;stroke-linejoin:miter;stroke-miterlimit:4;stroke-dasharray:none;stroke-dashoffset:0;stroke-opacity:1;-inkscape-stroke:none;stop-color:#000000;stop-opacity:1"
         d="m 50.204405,147.65595 c 24.047471,-4.05968 86.712115,-51.502058 129.594155,-37.84988 31.65336,10.07735 52.40647,69.47489 61.90049,78.10071 C 235.73414,172.92799 228.44038,59.054881 178.35714,46.746023 125.55728,33.769508 73.783424,146.09127 50.204405,147.65595 Z"
         id="path30277"
         sodipodi:nodetypes="cacac" />
      <path
         id="path30941"
         style="font-variation-settings:normal;opacity:1;vector-effect:none;fill:#ffebcd;fill-opacity:1;stroke:none;stroke-width:0.610866;stroke-linecap:butt;stroke-linejoin:miter;stroke-miterlimit:4;stroke-dasharray:none;stroke-dashoffset:0;stroke-opacity:1;-inkscape-stroke:none;stop-color:#000000;stop-opacity:1"
         d="m 177.14337,57.44856 c -9.25277,-1.791177 -22.80322,4.767879 -25.79669,11.572794 -2.38135,5.41338 6.8301,16.374875 6.8301,16.374875 l -0.95054,9.469329 c 0,0 7.47131,4.447973 11.65599,5.258062 4.18474,0.81011 12.77641,-0.528372 12.77641,-0.528372 l 2.65162,-9.140028 c 0,0 12.63661,-6.732093 12.44747,-12.643075 -0.2871,-8.972585 -10.36159,-18.57241 -19.61436,-20.363585 z m -9.26083,9.940802 c 3.10239,0.600246 4.72149,2.978863 3.99166,5.795036 -0.70721,2.728827 -3.23171,4.576437 -6.6692,3.686016 -3.1261,-0.809762 -5.32473,-3.259057 -4.81184,-5.908544 0.5129,-2.649485 3.4519,-3.963946 6.66919,-3.686017 0.28369,0.02451 0.55728,0.06264 0.82019,0.113511 z m 14.14293,2.737826 c 0.2629,0.05092 0.53096,0.117645 0.8033,0.200771 3.08859,0.942778 5.32474,3.259058 4.81184,5.908543 -0.51289,2.649487 -3.46673,4.101351 -6.66918,3.686018 -3.52144,-0.456707 -5.17407,-3.112938 -4.81184,-5.908546 0.37382,-2.885091 2.76362,-4.487656 5.86588,-3.886788 z" />
      <path
         id="path39232"
         style="font-variation-settings:normal;opacity:1;vector-effect:none;fill:#060075;fill-opacity:1;stroke:none;stroke-width:3.99999;stroke-linecap:butt;stroke-linejoin:miter;stroke-miterlimit:4;stroke-dasharray:none;stroke-dashoffset:0;stroke-opacity:1;-inkscape-stroke:none;stop-color:#000000;stop-opacity:1"
         d="m 853.73633,769.21875 c -19.98506,33.50849 -108.22707,26.41067 -104.25586,16.76758 0,0 -19.20772,71.9243 -42.58399,80.69726 -23.90853,8.97272 -99.25976,-25.86914 -99.25976,-25.86914 0,0 -38.87566,60.81984 -62.2207,65.61719 -4.43792,0.91198 -9.5701,-1.37377 -14.92383,-5.4668 -27.64842,34.04041 -44.6704,69.04463 -52.18164,99.66996 -9.91293,-33.70905 -13.06108,-85.61736 -33.27539,-135.88871 -27.28638,16.96951 -61.11023,34.92935 -75.65625,29.51758 -23.86019,-8.87705 -24.18164,-86.06445 -24.18164,-86.06445 0,0 -66.96068,4.80227 -73.51954,-21.7793 2.64804,-2.16667 5.3857,-4.29449 8.15821,-6.41015 -20.94501,9.66789 -37.6017,18.95836 -46.71875,27.12109 -47.83905,42.83153 -32.08399,326.72654 -32.08399,326.72654 h 714.77735 c 0,0 3.83141,-54.3808 26.63281,-148.46287 22.8014,-94.08212 -69.73889,-195.92498 -81.62891,-211.80273 -0.88294,-1.17908 -3.56029,-2.69827 -7.07812,-4.37305 z"
         transform="scale(0.26458333)" />
      <path
         id="path39864"
         style="font-variation-settings:normal;opacity:1;vector-effect:none;fill:#030038;fill-opacity:1;stroke:none;stroke-width:3.99999;stroke-linecap:butt;stroke-linejoin:miter;stroke-miterlimit:4;stroke-dasharray:none;stroke-dashoffset:0;stroke-opacity:1;-inkscape-stroke:none;stop-color:#000000;stop-opacity:1"
         d="m 749.48047,785.98633 c 0,0 -8.60794,32.10166 -21.2832,56.0332 18.96742,-16.81193 38.56482,-32.85506 58.81835,-48.10156 -21.60118,0.35292 -39.36333,-3.49237 -37.53515,-7.93164 z m -431.9668,21.83008 c 11.17924,16.43667 22.20377,33.608 33.03711,51.6875 -5.12402,-24.01085 -5.35351,-51.30469 -5.35351,-51.30469 0,0 -12.81642,0.78097 -27.6836,-0.38281 z m 290.12305,32.99804 c 0,0 -38.87566,60.81984 -62.2207,65.61719 -4.43792,0.91198 -9.5701,-1.37377 -14.92383,-5.4668 -27.64842,34.04041 -44.6704,69.0446 -52.18164,99.66996 -9.91293,-33.70908 -13.06108,-85.61736 -33.27539,-135.88871 -26.55193,16.51276 -59.24058,33.89688 -74.38672,29.83789 35.63655,65.11714 90.64296,123.86592 86.17519,237.47802 l 24.06496,1.7954 c 6.95486,-133.4212 140.31381,-190.33074 219.17782,-265.90428 -28.85584,2.21369 -92.42969,-27.13867 -92.42969,-27.13867 z"
         transform="scale(0.26458333)"
         sodipodi:nodetypes="cccccccccscccccccc" />
      <path
         style="font-variation-settings:normal;opacity:1;vector-effect:none;fill:#ffd700;fill-opacity:1;stroke:none;stroke-width:1.05833;stroke-linecap:butt;stroke-linejoin:miter;stroke-miterlimit:4;stroke-dasharray:none;stroke-dashoffset:0;stroke-opacity:1;-inkscape-stroke:none;stop-color:#000000;stop-opacity:1"
         d="m 92.557734,252.8021 c 0,0 15.661046,21.39508 27.485956,22.84527 13.84009,1.69734 37.6779,-18.17244 37.6779,-18.17244 1.27746,12.44286 -22.76401,40.19309 -41.03088,37.32858 C 100.73869,292.302 89.058591,265.79453 92.557734,252.8021 Z"
         id="path46881"
         sodipodi:nodetypes="cacac" />
      <path
         id="path51193"
         style="font-variation-settings:normal;opacity:1;vector-effect:none;fill:#a18800;fill-opacity:1;stroke:none;stroke-width:0.166156;stroke-linecap:butt;stroke-linejoin:miter;stroke-miterlimit:4;stroke-dasharray:none;stroke-dashoffset:0;stroke-opacity:1;-inkscape-stroke:none;stop-color:#000000;stop-opacity:1"
         d="m 119.39885,279.31987 c -2.51676,-0.4872 -6.20248,1.29687 -7.0167,3.1478 -0.64773,1.47244 1.85778,4.45397 1.85778,4.45397 l -0.25854,2.57566 c 0,0 2.03219,1.20985 3.17043,1.43019 1.13825,0.22035 3.47518,-0.14372 3.47518,-0.14372 l 0.72124,-2.48608 c 0,0 3.43716,-1.83113 3.38571,-3.43892 -0.0781,-2.44054 -2.81835,-5.0517 -5.3351,-5.5389 z m -2.51895,2.7039 c 0.84385,0.16327 1.28425,0.81025 1.08573,1.57625 -0.19236,0.74224 -0.87902,1.24479 -1.81402,1.0026 -0.8503,-0.22026 -1.44833,-0.88646 -1.30882,-1.60713 0.13951,-0.72065 0.93892,-1.07819 1.81402,-1.00259 0.0772,0.007 0.15158,0.017 0.22309,0.0309 z m 3.84688,0.74469 c 0.0715,0.0138 0.14442,0.032 0.2185,0.0546 0.84009,0.25644 1.44832,0.88646 1.30882,1.60712 -0.13951,0.72066 -0.94295,1.11557 -1.81402,1.0026 -0.95783,-0.12422 -1.40735,-0.84672 -1.30882,-1.60712 0.10168,-0.78475 0.7517,-1.22065 1.59552,-1.05721 z" />
      <path
         id="path55448"
         style="font-variation-settings:normal;opacity:1;vector-effect:none;fill:#a18800;fill-opacity:1;stroke:none;stroke-width:0.166156;stroke-linecap:butt;stroke-linejoin:miter;stroke-miterlimit:4;stroke-dasharray:none;stroke-dashoffset:0;stroke-opacity:1;-inkscape-stroke:none;stop-color:#000000;stop-opacity:1"
         d="m 130.97846,275.94927 c -2.50513,0.54385 -5.18975,3.63582 -5.20881,5.65783 -0.0152,1.60854 3.46242,3.36168 3.46242,3.36168 l 0.77722,2.46917 c 0,0 2.3445,0.31126 3.47747,0.0653 1.133,-0.24597 3.13743,-1.50137 3.13743,-1.50137 l -0.31666,-2.56914 c 0,0 2.43762,-3.03729 1.75684,-4.49475 -1.03339,-2.21233 -4.58079,-3.53257 -7.08591,-2.98872 z m -1.24981,3.47767 c 0.83992,-0.18243 1.49961,0.23869 1.61897,1.02094 0.11565,0.75799 -0.31745,1.49044 -1.27224,1.63625 -0.8683,0.13258 -1.68044,-0.24409 -1.83617,-0.96143 -0.15573,-0.71732 0.43814,-1.36092 1.27224,-1.63623 0.0737,-0.024 0.14601,-0.0441 0.21721,-0.0595 z m 3.8291,-0.83128 c 0.0712,-0.0155 0.14535,-0.0275 0.22234,-0.0359 0.87317,-0.0953 1.68044,0.24409 1.83617,0.96142 0.15573,0.71733 -0.42712,1.39686 -1.27223,1.63624 -0.92929,0.26323 -1.62712,-0.22371 -1.83617,-0.96141 -0.21575,-0.76134 0.20993,-1.41809 1.04989,-1.60035 z" />
      <path
         id="path55450"
         style="font-variation-settings:normal;opacity:1;vector-effect:none;fill:#a18800;fill-opacity:1;stroke:none;stroke-width:0.166156;stroke-linecap:butt;stroke-linejoin:miter;stroke-miterlimit:4;stroke-dasharray:none;stroke-dashoffset:0;stroke-opacity:1;-inkscape-stroke:none;stop-color:#000000;stop-opacity:1"
         d="m 109.74287,272.55113 c -2.05033,-1.5387 -6.14513,-1.54598 -7.68677,-0.23745 -1.2264,1.04095 -0.27694,4.81794 -0.27694,4.81794 l -1.35882,2.20328 c 0,0 1.29854,1.9767 2.22583,2.6726 0.92729,0.69591 3.18814,1.39041 3.18814,1.39041 l 1.73577,-1.92039 c 0,0 3.89184,-0.14374 4.54864,-1.61215 0.99699,-2.22898 -0.32554,-5.77554 -2.37585,-7.31424 z m -3.44774,1.33016 c 0.6875,0.51584 0.80064,1.29027 0.28714,1.89234 -0.49756,0.58339 -1.33485,0.73508 -2.06981,0.1084 -0.66837,-0.56991 -0.91487,-1.43055 -0.47426,-2.01766 0.44059,-0.58709 1.31587,-0.55905 2.0698,-0.10839 0.0664,0.04 0.12889,0.0816 0.18712,0.12534 z m 3.13394,2.35192 c 0.0583,0.0437 0.11588,0.0919 0.17262,0.14465 0.64337,0.59799 0.91487,1.43055 0.47427,2.01765 -0.4406,0.5871 -1.33584,0.59092 -2.06981,0.10841 -0.80708,-0.53056 -0.8954,-1.37689 -0.47427,-2.01765 0.43461,-0.66128 1.2098,-0.76905 1.89719,-0.25307 z" />
      <path
         id="path81312"
         style="color:#000000;fill:#a18800;stroke-width:3.77953;stroke-linecap:round;-inkscape-stroke:none"
         d="m 809.20117,792.03125 c -1.97858,0.31616 -3.9629,0.59461 -5.95117,0.82813 -70.85803,83.6302 -139.14642,151.34661 -207.87109,178.4121 a 1.9999938,1.9999938 0 0 0 -1.12891,2.5918 1.9999938,1.9999938 0 0 0 2.59766,1.12891 c 70.93019,-27.93413 140.38939,-97.57497 212.35351,-182.96094 z m -504.71875,14.125 c -0.48853,4.13105 -1.03595,8.21711 -1.41797,12.41406 -2.6282,28.87401 -2.51099,58.88014 3.9043,84.06446 6.41529,25.18427 19.30491,45.71557 42.12109,54.70117 a 1.9999938,1.9999938 0 0 0 2.59766,-1.13086 1.9999938,1.9999938 0 0 0 -1.12891,-2.58985 c -21.36877,-8.41557 -33.47737,-27.5132 -39.70703,-51.96875 -6.22966,-24.45554 -6.40707,-54.10298 -3.80273,-82.71484 0.37177,-4.08436 0.90483,-8.06239 1.3789,-12.08594 -1.32789,-0.18452 -2.62347,-0.46274 -3.94531,-0.68945 z"
         transform="scale(0.26458333)" />
    </g>
  </g>
    
</svg>
