<?xml version="1.0" encoding="UTF-8" standalone="no"?>
<svg
   width="300mm"
   height="300mm"
   viewBox="0 0 300 300"
   version="1.1"
   id="svg5"
   inkscape:version="1.1 (1:1.1+202106032008+af4d65493e)"
   sodipodi:docname="masterFile.svg"
   xmlns:inkscape="http://www.inkscape.org/namespaces/inkscape"
   xmlns:sodipodi="http://sodipodi.sourceforge.net/DTD/sodipodi-0.dtd"
   xmlns:xlink="http://www.w3.org/1999/xlink"
   xmlns="http://www.w3.org/2000/svg"
   xmlns:svg="http://www.w3.org/2000/svg">
  <sodipodi:namedview
     id="namedview7"
     pagecolor="#505050"
     bordercolor="#ffffff"
     borderopacity="1"
     inkscape:pageshadow="0"
     inkscape:pageopacity="0"
     inkscape:pagecheckerboard="1"
     inkscape:document-units="mm"
     showgrid="false"
     inkscape:zoom="0.30199916"
     inkscape:cx="210.26549"
     inkscape:cy="238.41126"
     inkscape:window-width="2560"
     inkscape:window-height="1043"
     inkscape:window-x="0"
     inkscape:window-y="0"
     inkscape:window-maximized="1"
     inkscape:current-layer="layer8"
     inkscape:snap-page="true"
     inkscape:snap-global="true"
     inkscape:object-paths="true"
     inkscape:snap-intersection-paths="true"
     inkscape:snap-smooth-nodes="true" />
  <defs
     id="defs2">
    <linearGradient
       id="linearGradient7648">
      <stop
         style="stop-color:#bf0d3e;stop-opacity:1"
         offset="0"
         id="stop7644" />
      <stop
         style="stop-color:#bf0d3e;stop-opacity:0"
         offset="1"
         id="stop7646" />
    </linearGradient>
    <linearGradient
       id="linearGradient6662">
      <stop
         style="stop-color:#00205b;stop-opacity:1"
         offset="0"
         id="stop6658" />
      <stop
         style="stop-color:#00205b;stop-opacity:0"
         offset="1"
         id="stop6660" />
    </linearGradient>
    <radialGradient
       xlink:href="#linearGradient6662"
       id="radialGradient8006"
       gradientUnits="userSpaceOnUse"
       gradientTransform="matrix(2,0,0,2,-2.81875e-4,-300.00002)"
       cx="1.0592222e-14"
       cy="300"
       fx="1.0592222e-14"
       fy="300"
       r="150" />
    <radialGradient
       xlink:href="#linearGradient6662"
       id="radialGradient8008"
       gradientUnits="userSpaceOnUse"
       gradientTransform="matrix(2,0,0,2,-299.99983,-599.99999)"
       cx="1.0592222e-14"
       cy="300"
       fx="1.0592222e-14"
       fy="300"
       r="150" />
    <radialGradient
       xlink:href="#linearGradient7648"
       id="radialGradient8010"
       gradientUnits="userSpaceOnUse"
       gradientTransform="matrix(2,0,0,2,-299.99943,-300.00002)"
       cx="1.0592222e-14"
       cy="300"
       fx="1.0592222e-14"
       fy="300"
       r="150" />
    <radialGradient
       xlink:href="#linearGradient7648"
       id="radialGradient8012"
       gradientUnits="userSpaceOnUse"
       gradientTransform="matrix(2,0,0,2,-2.81875e-4,-599.99997)"
       cx="1.0592222e-14"
       cy="300"
       fx="1.0592222e-14"
       fy="300"
       r="150" />
    <linearGradient
       id="linearGradient24021">
      <stop
         style="stop-color:#323729;stop-opacity:1"
         offset="0"
         id="stop24017" />
      <stop
         style="stop-color:#323729;stop-opacity:0"
         offset="1"
         id="stop24019" />
    </linearGradient>
    <radialGradient
       xlink:href="#linearGradient24021"
       id="radialGradient24023"
       cx="-1.9151347e-15"
       cy="300"
       fx="-1.9151347e-15"
       fy="300"
       r="150"
       gradientUnits="userSpaceOnUse"
       gradientTransform="matrix(2,0,0,2,0,-300)" />
    <radialGradient
       xlink:href="#linearGradient24021"
       id="radialGradient24107"
       gradientUnits="userSpaceOnUse"
       gradientTransform="matrix(2,0,0,2,-300,-600)"
       cx="-1.9151347e-15"
       cy="300"
       fx="-1.9151347e-15"
       fy="300"
       r="150" />
    <linearGradient
       id="linearGradient24021-0">
      <stop
         style="stop-color:#63432a;stop-opacity:1"
         offset="0"
         id="stop24017-8" />
      <stop
         style="stop-color:#63432a;stop-opacity:0"
         offset="1"
         id="stop24019-8" />
    </linearGradient>
    <radialGradient
       xlink:href="#linearGradient24021-0"
       id="radialGradient24023-5"
       cx="-1.9151347e-15"
       cy="300"
       fx="-1.9151347e-15"
       fy="300"
       r="150"
       gradientUnits="userSpaceOnUse"
       gradientTransform="matrix(2,0,0,2,0,-300)" />
    <radialGradient
       xlink:href="#linearGradient24021-0"
       id="radialGradient24107-0"
       gradientUnits="userSpaceOnUse"
       gradientTransform="matrix(2,0,0,2,-300,-600)"
       cx="-1.9151347e-15"
       cy="300"
       fx="-1.9151347e-15"
       fy="300"
       r="150" />
    <rect
       x="243.46649"
       y="834.99508"
       width="482.81721"
       height="299.65142"
       id="rect201983" />
    <linearGradient
       inkscape:collect="always"
       id="linearGradient111750">
      <stop
         style="stop-color:#000000;stop-opacity:0.46352127"
         offset="0"
         id="stop111746" />
      <stop
         style="stop-color:#000000;stop-opacity:0"
         offset="1"
         id="stop111748" />
    </linearGradient>
    <filter
       inkscape:collect="always"
       style="color-interpolation-filters:sRGB"
       id="filter87896"
       x="-0.1317142"
       y="-0.092097318"
       width="1.2634284"
       height="1.1841946">
      <feGaussianBlur
         inkscape:collect="always"
         stdDeviation="0.35608277"
         id="feGaussianBlur87898" />
    </filter>
    <linearGradient
       inkscape:collect="always"
       xlink:href="#linearGradient111750"
       id="linearGradient111752"
       x1="113.50005"
       y1="130.23248"
       x2="124.63548"
       y2="147.72809"
       gradientUnits="userSpaceOnUse" />
    <linearGradient
       inkscape:collect="always"
       id="linearGradient42160">
      <stop
         style="stop-color:#1a1a1a;stop-opacity:1;"
         offset="0"
         id="stop42156" />
      <stop
         style="stop-color:#2b2b2b;stop-opacity:1"
         offset="1"
         id="stop42158" />
    </linearGradient>
    <rect
       x="243.46649"
       y="834.99508"
       width="482.81721"
       height="299.65142"
       id="rect201983-4" />
    <linearGradient
       inkscape:collect="always"
       xlink:href="#linearGradient42160"
       id="linearGradient42162"
       x1="-285.29416"
       y1="164.98166"
       x2="-267.35732"
       y2="164.98166"
       gradientUnits="userSpaceOnUse"
       gradientTransform="matrix(3.2936646,0,0,3.7795276,-145.87567,0)" />
    <linearGradient
       inkscape:collect="always"
       xlink:href="#linearGradient42160"
       id="linearGradient5194"
       gradientUnits="userSpaceOnUse"
       gradientTransform="matrix(3.2936646,0,0,3.7795276,-145.87567,0)"
       x1="-285.29416"
       y1="164.98166"
       x2="-267.35732"
       y2="164.98166" />
    <linearGradient
       inkscape:collect="always"
       xlink:href="#linearGradient42160"
       id="linearGradient5196"
       gradientUnits="userSpaceOnUse"
       gradientTransform="matrix(3.2936646,0,0,3.7795276,-145.87567,0)"
       x1="-285.29416"
       y1="164.98166"
       x2="-267.35732"
       y2="164.98166" />
    <linearGradient
       inkscape:collect="always"
       xlink:href="#linearGradient42160"
       id="linearGradient5198"
       gradientUnits="userSpaceOnUse"
       gradientTransform="matrix(3.2936646,0,0,3.7795276,-145.87567,0)"
       x1="-285.29416"
       y1="164.98166"
       x2="-267.35732"
       y2="164.98166" />
    <linearGradient
       inkscape:collect="always"
       xlink:href="#linearGradient42160"
       id="linearGradient5200"
       gradientUnits="userSpaceOnUse"
       gradientTransform="matrix(3.2936646,0,0,3.7795276,-145.87567,0)"
       x1="-285.29416"
       y1="164.98166"
       x2="-267.35732"
       y2="164.98166" />
    <linearGradient
       inkscape:collect="always"
       xlink:href="#linearGradient42160"
       id="linearGradient5202"
       gradientUnits="userSpaceOnUse"
       gradientTransform="matrix(3.2936646,0,0,3.7795276,-145.87567,0)"
       x1="-285.29416"
       y1="164.98166"
       x2="-267.35732"
       y2="164.98166" />
    <linearGradient
       inkscape:collect="always"
       xlink:href="#linearGradient42160"
       id="linearGradient5204"
       gradientUnits="userSpaceOnUse"
       gradientTransform="matrix(3.2936646,0,0,3.7795276,-145.87567,0)"
       x1="-285.29416"
       y1="164.98166"
       x2="-267.35732"
       y2="164.98166" />
    <linearGradient
       inkscape:collect="always"
       xlink:href="#linearGradient42160"
       id="linearGradient5206"
       gradientUnits="userSpaceOnUse"
       gradientTransform="matrix(3.2936646,0,0,3.7795276,-145.87567,0)"
       x1="-285.29416"
       y1="164.98166"
       x2="-267.35732"
       y2="164.98166" />
    <linearGradient
       inkscape:collect="always"
       xlink:href="#linearGradient42160"
       id="linearGradient5208"
       gradientUnits="userSpaceOnUse"
       gradientTransform="matrix(3.2936646,0,0,3.7795276,-145.87567,0)"
       x1="-285.29416"
       y1="164.98166"
       x2="-267.35732"
       y2="164.98166" />
    <linearGradient
       inkscape:collect="always"
       xlink:href="#linearGradient42160"
       id="linearGradient5210"
       gradientUnits="userSpaceOnUse"
       gradientTransform="matrix(3.2936646,0,0,3.7795276,-145.87567,0)"
       x1="-285.29416"
       y1="164.98166"
       x2="-267.35732"
       y2="164.98166" />
    <linearGradient
       inkscape:collect="always"
       xlink:href="#linearGradient42160"
       id="linearGradient5212"
       gradientUnits="userSpaceOnUse"
       gradientTransform="matrix(3.2936646,0,0,3.7795276,-145.87567,0)"
       x1="-285.29416"
       y1="164.98166"
       x2="-267.35732"
       y2="164.98166" />
    <linearGradient
       inkscape:collect="always"
       xlink:href="#linearGradient42160"
       id="linearGradient5214"
       gradientUnits="userSpaceOnUse"
       gradientTransform="matrix(3.2936646,0,0,3.7795276,-145.87567,0)"
       x1="-285.29416"
       y1="164.98166"
       x2="-267.35732"
       y2="164.98166" />
    <linearGradient
       inkscape:collect="always"
       xlink:href="#linearGradient42160"
       id="linearGradient5216"
       gradientUnits="userSpaceOnUse"
       gradientTransform="matrix(3.2936646,0,0,3.7795276,-145.87567,0)"
       x1="-285.29416"
       y1="164.98166"
       x2="-267.35732"
       y2="164.98166" />
    <linearGradient
       inkscape:collect="always"
       xlink:href="#linearGradient42160"
       id="linearGradient5218"
       gradientUnits="userSpaceOnUse"
       gradientTransform="matrix(3.2936646,0,0,3.7795276,-145.87567,0)"
       x1="-285.29416"
       y1="164.98166"
       x2="-267.35732"
       y2="164.98166" />
    <linearGradient
       inkscape:collect="always"
       xlink:href="#linearGradient42160"
       id="linearGradient5220"
       gradientUnits="userSpaceOnUse"
       gradientTransform="matrix(3.2936646,0,0,3.7795276,-145.87567,0)"
       x1="-285.29416"
       y1="164.98166"
       x2="-267.35732"
       y2="164.98166" />
    <linearGradient
       inkscape:collect="always"
       xlink:href="#linearGradient42160"
       id="linearGradient5222"
       gradientUnits="userSpaceOnUse"
       gradientTransform="matrix(3.2936646,0,0,3.7795276,-145.87567,0)"
       x1="-285.29416"
       y1="164.98166"
       x2="-267.35732"
       y2="164.98166" />
    <linearGradient
       inkscape:collect="always"
       xlink:href="#linearGradient42160"
       id="linearGradient5224"
       gradientUnits="userSpaceOnUse"
       gradientTransform="matrix(3.2936646,0,0,3.7795276,-145.87567,0)"
       x1="-285.29416"
       y1="164.98166"
       x2="-267.35732"
       y2="164.98166" />
    <linearGradient
       inkscape:collect="always"
       xlink:href="#linearGradient42160"
       id="linearGradient5226"
       gradientUnits="userSpaceOnUse"
       gradientTransform="matrix(3.2936646,0,0,3.7795276,-145.87567,0)"
       x1="-285.29416"
       y1="164.98166"
       x2="-267.35732"
       y2="164.98166" />
    <linearGradient
       inkscape:collect="always"
       xlink:href="#linearGradient42160"
       id="linearGradient5228"
       gradientUnits="userSpaceOnUse"
       gradientTransform="matrix(3.2936646,0,0,3.7795276,-145.87567,0)"
       x1="-285.29416"
       y1="164.98166"
       x2="-267.35732"
       y2="164.98166" />
    <linearGradient
       inkscape:collect="always"
       xlink:href="#linearGradient42160"
       id="linearGradient5230"
       gradientUnits="userSpaceOnUse"
       gradientTransform="matrix(3.2936646,0,0,3.7795276,-145.87567,0)"
       x1="-285.29416"
       y1="164.98166"
       x2="-267.35732"
       y2="164.98166" />
    <linearGradient
       inkscape:collect="always"
       xlink:href="#linearGradient42160"
       id="linearGradient5232"
       gradientUnits="userSpaceOnUse"
       gradientTransform="matrix(3.2936646,0,0,3.7795276,-145.87567,0)"
       x1="-285.29416"
       y1="164.98166"
       x2="-267.35732"
       y2="164.98166" />
    <linearGradient
       inkscape:collect="always"
       xlink:href="#linearGradient42160"
       id="linearGradient5234"
       gradientUnits="userSpaceOnUse"
       gradientTransform="matrix(3.2936646,0,0,3.7795276,-145.87567,0)"
       x1="-285.29416"
       y1="164.98166"
       x2="-267.35732"
       y2="164.98166" />
    <linearGradient
       inkscape:collect="always"
       xlink:href="#linearGradient42160"
       id="linearGradient5236"
       gradientUnits="userSpaceOnUse"
       gradientTransform="matrix(3.2936646,0,0,3.7795276,-145.87567,0)"
       x1="-285.29416"
       y1="164.98166"
       x2="-267.35732"
       y2="164.98166" />
    <linearGradient
       inkscape:collect="always"
       xlink:href="#linearGradient42160"
       id="linearGradient5238"
       gradientUnits="userSpaceOnUse"
       gradientTransform="matrix(3.2936646,0,0,3.7795276,-145.87567,0)"
       x1="-285.29416"
       y1="164.98166"
       x2="-267.35732"
       y2="164.98166" />
    <linearGradient
       inkscape:collect="always"
       xlink:href="#linearGradient42160"
       id="linearGradient5240"
       gradientUnits="userSpaceOnUse"
       gradientTransform="matrix(3.2936646,0,0,3.7795276,-145.87567,0)"
       x1="-285.29416"
       y1="164.98166"
       x2="-267.35732"
       y2="164.98166" />
    <linearGradient
       inkscape:collect="always"
       xlink:href="#linearGradient42160"
       id="linearGradient5244"
       gradientUnits="userSpaceOnUse"
       gradientTransform="matrix(3.2936646,0,0,3.7795276,-145.87567,0)"
       x1="-285.29416"
       y1="164.98166"
       x2="-267.35732"
       y2="164.98166" />
    <linearGradient
       inkscape:collect="always"
       xlink:href="#linearGradient42160"
       id="linearGradient5246"
       gradientUnits="userSpaceOnUse"
       gradientTransform="matrix(3.2936646,0,0,3.7795276,-145.87567,0)"
       x1="-285.29416"
       y1="164.98166"
       x2="-267.35732"
       y2="164.98166" />
    <linearGradient
       inkscape:collect="always"
       xlink:href="#linearGradient42160"
       id="linearGradient5248"
       gradientUnits="userSpaceOnUse"
       gradientTransform="matrix(3.2936646,0,0,3.7795276,-145.87567,0)"
       x1="-285.29416"
       y1="164.98166"
       x2="-267.35732"
       y2="164.98166" />
    <linearGradient
       inkscape:collect="always"
       xlink:href="#linearGradient42160"
       id="linearGradient5410"
       gradientUnits="userSpaceOnUse"
       gradientTransform="matrix(3.2936646,0,0,3.7795276,-145.87567,0)"
       x1="-285.29416"
       y1="164.98166"
       x2="-267.35732"
       y2="164.98166" />
    <linearGradient
       inkscape:collect="always"
       xlink:href="#linearGradient42160"
       id="linearGradient5412"
       gradientUnits="userSpaceOnUse"
       gradientTransform="matrix(3.2936646,0,0,3.7795276,-145.87567,0)"
       x1="-285.29416"
       y1="164.98166"
       x2="-267.35732"
       y2="164.98166" />
    <linearGradient
       inkscape:collect="always"
       xlink:href="#linearGradient42160"
       id="linearGradient5414"
       gradientUnits="userSpaceOnUse"
       gradientTransform="matrix(3.2936646,0,0,3.7795276,-145.87567,0)"
       x1="-285.29416"
       y1="164.98166"
       x2="-267.35732"
       y2="164.98166" />
    <linearGradient
       inkscape:collect="always"
       xlink:href="#linearGradient42160"
       id="linearGradient5416"
       gradientUnits="userSpaceOnUse"
       gradientTransform="matrix(3.2936646,0,0,3.7795276,-145.87567,0)"
       x1="-285.29416"
       y1="164.98166"
       x2="-267.35732"
       y2="164.98166" />
    <linearGradient
       inkscape:collect="always"
       xlink:href="#linearGradient42160"
       id="linearGradient5418"
       gradientUnits="userSpaceOnUse"
       gradientTransform="matrix(3.2936646,0,0,3.7795276,-145.87567,0)"
       x1="-285.29416"
       y1="164.98166"
       x2="-267.35732"
       y2="164.98166" />
    <linearGradient
       inkscape:collect="always"
       xlink:href="#linearGradient42160"
       id="linearGradient5420"
       gradientUnits="userSpaceOnUse"
       gradientTransform="matrix(3.2936646,0,0,3.7795276,-145.87567,0)"
       x1="-285.29416"
       y1="164.98166"
       x2="-267.35732"
       y2="164.98166" />
    <linearGradient
       inkscape:collect="always"
       xlink:href="#linearGradient42160"
       id="linearGradient5422"
       gradientUnits="userSpaceOnUse"
       gradientTransform="matrix(3.2936646,0,0,3.7795276,-145.87567,0)"
       x1="-285.29416"
       y1="164.98166"
       x2="-267.35732"
       y2="164.98166" />
    <linearGradient
       inkscape:collect="always"
       xlink:href="#linearGradient42160"
       id="linearGradient5424"
       gradientUnits="userSpaceOnUse"
       gradientTransform="matrix(3.2936646,0,0,3.7795276,-145.87567,0)"
       x1="-285.29416"
       y1="164.98166"
       x2="-267.35732"
       y2="164.98166" />
    <linearGradient
       inkscape:collect="always"
       xlink:href="#linearGradient42160"
       id="linearGradient5426"
       gradientUnits="userSpaceOnUse"
       gradientTransform="matrix(3.2936646,0,0,3.7795276,-145.87567,0)"
       x1="-285.29416"
       y1="164.98166"
       x2="-267.35732"
       y2="164.98166" />
    <linearGradient
       inkscape:collect="always"
       xlink:href="#linearGradient42160"
       id="linearGradient5428"
       gradientUnits="userSpaceOnUse"
       gradientTransform="matrix(3.2936646,0,0,3.7795276,-145.87567,0)"
       x1="-285.29416"
       y1="164.98166"
       x2="-267.35732"
       y2="164.98166" />
    <linearGradient
       inkscape:collect="always"
       xlink:href="#linearGradient42160"
       id="linearGradient5430"
       gradientUnits="userSpaceOnUse"
       gradientTransform="matrix(3.2936646,0,0,3.7795276,-145.87567,0)"
       x1="-285.29416"
       y1="164.98166"
       x2="-267.35732"
       y2="164.98166" />
    <linearGradient
       inkscape:collect="always"
       xlink:href="#linearGradient42160"
       id="linearGradient5432"
       gradientUnits="userSpaceOnUse"
       gradientTransform="matrix(3.2936646,0,0,3.7795276,-145.87567,0)"
       x1="-285.29416"
       y1="164.98166"
       x2="-267.35732"
       y2="164.98166" />
    <linearGradient
       inkscape:collect="always"
       xlink:href="#linearGradient42160"
       id="linearGradient5434"
       gradientUnits="userSpaceOnUse"
       gradientTransform="matrix(3.2936646,0,0,3.7795276,-145.87567,0)"
       x1="-285.29416"
       y1="164.98166"
       x2="-267.35732"
       y2="164.98166" />
    <linearGradient
       inkscape:collect="always"
       xlink:href="#linearGradient42160"
       id="linearGradient5436"
       gradientUnits="userSpaceOnUse"
       gradientTransform="matrix(3.2936646,0,0,3.7795276,-145.87567,0)"
       x1="-285.29416"
       y1="164.98166"
       x2="-267.35732"
       y2="164.98166" />
    <linearGradient
       inkscape:collect="always"
       xlink:href="#linearGradient42160"
       id="linearGradient5438"
       gradientUnits="userSpaceOnUse"
       gradientTransform="matrix(3.2936646,0,0,3.7795276,-145.87567,0)"
       x1="-285.29416"
       y1="164.98166"
       x2="-267.35732"
       y2="164.98166" />
    <linearGradient
       inkscape:collect="always"
       xlink:href="#linearGradient42160"
       id="linearGradient5440"
       gradientUnits="userSpaceOnUse"
       gradientTransform="matrix(3.2936646,0,0,3.7795276,-145.87567,0)"
       x1="-285.29416"
       y1="164.98166"
       x2="-267.35732"
       y2="164.98166" />
    <linearGradient
       inkscape:collect="always"
       xlink:href="#linearGradient42160"
       id="linearGradient5442"
       gradientUnits="userSpaceOnUse"
       gradientTransform="matrix(3.2936646,0,0,3.7795276,-145.87567,0)"
       x1="-285.29416"
       y1="164.98166"
       x2="-267.35732"
       y2="164.98166" />
    <linearGradient
       inkscape:collect="always"
       xlink:href="#linearGradient42160"
       id="linearGradient5444"
       gradientUnits="userSpaceOnUse"
       gradientTransform="matrix(3.2936646,0,0,3.7795276,-145.87567,0)"
       x1="-285.29416"
       y1="164.98166"
       x2="-267.35732"
       y2="164.98166" />
    <linearGradient
       inkscape:collect="always"
       xlink:href="#linearGradient42160"
       id="linearGradient5446"
       gradientUnits="userSpaceOnUse"
       gradientTransform="matrix(3.2936646,0,0,3.7795276,-145.87567,0)"
       x1="-285.29416"
       y1="164.98166"
       x2="-267.35732"
       y2="164.98166" />
    <rect
       x="243.46649"
       y="834.99508"
       width="482.81721"
       height="299.65142"
       id="rect201983-3" />
    <linearGradient
       inkscape:collect="always"
       id="linearGradient154712">
      <stop
         style="stop-color:#000c1c;stop-opacity:1"
         offset="0"
         id="stop154708" />
      <stop
         style="stop-color:#001531;stop-opacity:1"
         offset="1"
         id="stop154710" />
    </linearGradient>
    <rect
       x="243.46649"
       y="834.99508"
       width="482.81721"
       height="299.65142"
       id="rect201983-47" />
    <clipPath
       clipPathUnits="userSpaceOnUse"
       id="clipPath116759">
      <path
         id="path116761"
         style="font-variation-settings:normal;display:inline;opacity:1;vector-effect:none;fill:#00bfff;fill-opacity:1;stroke:none;stroke-width:1.05833;stroke-linecap:butt;stroke-linejoin:miter;stroke-miterlimit:4;stroke-dasharray:none;stroke-dashoffset:0;stroke-opacity:1;-inkscape-stroke:none;stop-color:#000000;stop-opacity:1"
         d="m 237.01395,245.10287 c -5.27216,8.88108 -28.64439,7.00202 -27.59314,4.44934 0,0 -5.08205,19.02997 -11.26702,21.35115 -6.3258,2.37403 -26.26248,-6.84455 -26.26248,-6.84455 0,0 -10.28585,16.09192 -16.46256,17.36122 -5.84548,1.20123 -16.18299,-17.98081 -16.18299,-17.98081 0,0 -23.49684,17.32723 -30.39349,14.76137 -6.31301,-2.34872 -6.39806,-22.77122 -6.39806,-22.77122 0,0 -17.716678,1.2706 -19.452043,-5.76244 0.712367,-0.58287 1.448324,-1.15548 2.194701,-1.72444 -5.569908,2.56914 -9.975559,5.03607 -12.397177,7.20421 -12.657415,11.33251 -8.488889,86.4464 -8.488889,86.4464 H 253.42897 c 0,0 1.01373,-14.38826 7.0466,-39.28081 6.03287,-24.89256 -18.45175,-51.83848 -21.59765,-56.03947 -0.23786,-0.31764 -0.9057,-0.71675 -1.86397,-1.16995 z"
         sodipodi:nodetypes="ccscscscccsccssc" />
    </clipPath>
    <radialGradient
       inkscape:collect="always"
       xlink:href="#linearGradient154712"
       id="radialGradient154714"
       cx="432.82227"
       cy="473.26151"
       fx="432.82227"
       fy="473.26151"
       r="62.79492"
       gradientTransform="matrix(-2.3981059,-0.22885758,0.03982089,-0.41726693,1451.9302,771.98612)"
       gradientUnits="userSpaceOnUse" />
    <linearGradient
       inkscape:collect="always"
       xlink:href="#linearGradient111750"
       id="linearGradient8594"
       gradientUnits="userSpaceOnUse"
       x1="113.50005"
       y1="130.23248"
       x2="124.63548"
       y2="147.72809"
       gradientTransform="translate(-1.4199348)" />
    <linearGradient
       inkscape:collect="always"
       xlink:href="#linearGradient111750"
       id="linearGradient45118"
       gradientUnits="userSpaceOnUse"
       gradientTransform="translate(-1.4199348)"
       x1="113.50005"
       y1="130.23248"
       x2="124.63548"
       y2="147.72809" />
  </defs>

    <g
     inkscape:label="Background - Flag Colors"
     inkscape:groupmode="layer"
     id="layer1"
     style="display:inline"
     sodipodi:insensitive="true">
    <g
       id="layer1-9"
       transform="translate(6.1035156e-5,3.0517578e-5)">
      <rect
         style="fill:#00205b;fill-opacity:0.5;fill-rule:evenodd;stroke-width:0.264583"
         id="rect8094"
         width="300"
         height="300"
         x="-6.1035156e-05"
         y="-2.2888184e-05" />
      <rect
         style="fill:#bf0d3e;fill-opacity:0.5;fill-rule:evenodd;stroke-width:0.264583"
         id="rect8134"
         width="300"
         height="300"
         x="-300"
         y="-2.2888184e-05"
         transform="scale(-1,1)" />
      <rect
         style="fill:url(#radialGradient8012);fill-opacity:1;fill-rule:evenodd;stroke-width:0.264583"
         id="rect7998"
         width="300"
         height="300"
         x="-6.1035156e-05"
         y="-299.99997"
         transform="scale(1,-1)" />
      <rect
         style="fill:url(#radialGradient8010);fill-opacity:1;fill-rule:evenodd;stroke-width:0.264583"
         id="rect8000"
         width="300"
         height="300"
         x="-300"
         y="-2.2888184e-05"
         transform="scale(-1,1)" />
      <rect
         style="fill:url(#radialGradient8008);fill-opacity:1;fill-rule:evenodd;stroke-width:0.264583"
         id="rect8002"
         width="300"
         height="300"
         x="-300"
         y="-300"
         transform="scale(-1)" />
      <rect
         style="fill:url(#radialGradient8006);fill-opacity:1;fill-rule:evenodd;stroke-width:0.264583"
         id="rect8004"
         width="300"
         height="300"
         x="-6.1035156e-05"
         y="-2.2888184e-05" />
    </g>
  </g>
    <g
     inkscape:groupmode="layer"
     id="layer4"
     inkscape:label="Eagle"
     sodipodi:insensitive="true"
     style="display:inline">
    <g
       id="g1151"
       transform="translate(-1.4199348)">
      <g
         id="layer2-1"
         inkscape:label="Body"
         style="display:inline;opacity:1">
        <path
           style="font-variation-settings:normal;opacity:1;vector-effect:none;fill:#282727;fill-opacity:1;stroke:none;stroke-width:1.05833;stroke-linecap:butt;stroke-linejoin:miter;stroke-miterlimit:4;stroke-dasharray:none;stroke-dashoffset:0;stroke-opacity:1;-inkscape-stroke:none;stop-color:#000000;stop-opacity:1"
           d="m 53.189936,300 c 0,0 -4.16832,-75.11401 8.489095,-86.44652 12.657415,-11.3325 79.252519,-30.81168 85.503189,-30.53702 6.25066,0.27466 77.4291,17.46217 80.57501,21.66316 3.1459,4.20099 27.63069,31.14684 21.59782,56.0394 C 243.32218,285.61157 242.30823,300 242.30823,300 Z"
           id="path1072" />
      </g>
      <g
         id="layer6"
         inkscape:label="Head 2"
         style="display:inline">
        <path
           style="font-variation-settings:normal;opacity:1;vector-effect:none;fill:#ffffff;fill-opacity:1;stroke:none;stroke-width:1.05833;stroke-linecap:butt;stroke-linejoin:miter;stroke-miterlimit:4;stroke-dasharray:none;stroke-dashoffset:0;stroke-opacity:1;-inkscape-stroke:none;stop-color:#000000;stop-opacity:1"
           d="m 71.881433,208.07356 c 1.735365,7.03304 19.452083,5.76245 19.452083,5.76245 0,0 0.08502,20.42249 6.398027,22.77121 6.896647,2.56586 30.393357,-14.76141 30.393357,-14.76141 0,0 10.33737,19.18208 16.18285,17.98085 6.17671,-1.2693 16.46304,-17.36122 16.46304,-17.36122 0,0 19.93654,9.21859 26.26234,6.84456 6.18497,-2.32118 11.2671,-21.35108 11.2671,-21.35108 -1.05161,2.55357 22.33791,4.43322 27.59935,-4.4584 -14.69653,-17.84933 15.69135,-48.51054 -47.42956,-109.23479 -22.75647,8.74897 -61.05768,-7.008413 -64.5602,34.9547 l 3.3494,36.21417 c -10.6666,23.05723 -31.481679,31.26887 -45.377787,42.63896 z"
           id="path137048"
           sodipodi:nodetypes="ccscscscccccc" />
        <path
           id="path207464"
           style="font-variation-settings:normal;opacity:1;vector-effect:none;fill:#dfdfdf;fill-opacity:1;stroke:none;stroke-width:3.99999;stroke-linecap:butt;stroke-linejoin:miter;stroke-miterlimit:4;stroke-dasharray:none;stroke-dashoffset:0;stroke-opacity:1;-inkscape-stroke:none;stop-color:#000000;stop-opacity:1"
           d="m 506.84269,701.93218 c 0,10e-6 -49.55157,59.47944 -72.27348,46.744 -12.84612,-7.20015 -5.13757,-64.62345 -5.13757,-64.62345 0,0 -47.92858,36.49537 -76.17773,44.91797 -0.0352,0.0105 -0.0742,0.0188 -0.10938,0.0293 -28.5274,20.8927 -57.67539,37.95329 -81.4668,57.41992 6.55886,26.58157 73.51954,21.7793 73.51954,21.7793 0,0 0.32145,77.1874 24.18164,86.06445 26.06606,9.69774 114.87304,-55.79101 114.87304,-55.79101 0,0 39.07091,72.49906 61.16407,67.95898 23.34504,-4.79735 62.2207,-65.61719 62.2207,-65.61719 0,0 75.35123,34.84186 99.25976,25.86914 23.37627,-8.77296 42.58399,-80.69726 42.58399,-80.69726 -3.97459,9.65129 84.42674,16.75651 104.3125,-16.84961 -14.89713,-18.09296 -17.5148,-39.7165 -18.00391,-66.0332 -0.36314,-0.0418 -0.77643,-0.0629 -1.13281,-0.10743 -28.67172,-3.58148 -82.75,-25.81836 -82.75,-25.81836 0,0 -27.56441,61.09691 -50.41275,68.42495 -23.78836,7.62953 -75.07464,-39.62948 -75.07464,-39.62948 0,0 -36.84193,76.83607 -59.55931,76.69434 -24.74245,-0.1542 -60.01686,-80.73536 -60.01686,-80.73536 z"
           transform="scale(0.26458333)"
           sodipodi:nodetypes="cscscccscscscccccscsc" />
      </g>
      <g
         id="layer5"
         inkscape:label="Beak"
         style="display:inline;opacity:1">
        <path
           id="path49082"
           style="font-variation-settings:normal;opacity:0.99;vector-effect:none;fill:#e8ae4d;fill-opacity:1;stroke:none;stroke-width:3.99999;stroke-linecap:butt;stroke-linejoin:miter;stroke-miterlimit:4;stroke-dasharray:none;stroke-dashoffset:0;stroke-opacity:1;-inkscape-stroke:none;stop-color:#000000;stop-opacity:1"
           d="m 594.14844,458.94336 c -35.69134,0.44885 -84.80602,30.81227 -120.52344,32.88281 -1.77895,-11.22625 4.41985,-26.68754 -19.55664,-26.13086 0,0 -29.59735,11.25124 -45.95703,17.55274 -82.31389,31.70608 -49.10597,169.26858 -33.53321,181.26367 0.85133,-18.78898 -5.06527,-43.8775 8.51563,-50.81641 0,0 26.05473,0.56605 41.39844,-2.17773 15.34371,-2.74375 40.46541,-11.29836 59.32226,-12.39453 18.85686,-1.09618 54.99805,6.53906 54.99805,6.53906 0,0 45.54026,-18.59165 61.67578,-36.12109 14.22594,-15.45491 28.34844,-35.0551 31.7461,-55.73243 9.5732,-7.56243 18.59551,-15.39759 27.47656,-17.95507 -14.43427,-8.02826 -40.74382,-37.22228 -65.5625,-36.91016 z"
           sodipodi:nodetypes="sccsccsscsccs"
           transform="scale(0.26458333)" />
        <path
           style="font-variation-settings:normal;opacity:1;fill:none;fill-opacity:1;stroke:none;stroke-width:1.058;stroke-linecap:round;stroke-linejoin:miter;stroke-miterlimit:4;stroke-dasharray:none;stroke-dashoffset:0;stroke-opacity:1;stop-color:#000000;stop-opacity:1"
           d="m 99.106944,175.81885 c -1.407177,-6.07811 -0.366315,-15.52143 3.258026,-18.12231 13.97891,-10.03146 28.2873,-1.67024 53.89559,-6.65001"
           id="path84544"
           sodipodi:nodetypes="csc" />
        <path
           id="circle106191"
           style="opacity:1;fill:#000000;fill-opacity:1;fill-rule:evenodd;stroke:none;stroke-width:5.00428;stroke-linecap:round;stroke-linejoin:round"
           d="m 595.66406,466.88477 a 29.005935,29.005935 0 0 0 -27.14648,18.82812 l -0.006,-0.0234 c -2.80929,6.12798 -5.64287,12.17976 -9.22461,15.92969 5.76564,3.24117 10.09781,8.66612 14.75977,13.58789 a 29.005935,29.005935 0 0 0 1.95703,2.00586 c 0.0131,0.0129 0.026,0.0262 0.0391,0.0391 l -0.002,-0.006 a 29.005935,29.005935 0 0 0 19.62304,7.65235 29.005935,29.005935 0 0 0 29.00782,-29.00586 29.005935,29.005935 0 0 0 -29.00782,-29.00781 z"
           transform="scale(0.26458333)" />
        <circle
           style="opacity:1;fill:#b0e0e6;fill-opacity:1;fill-rule:evenodd;stroke:none;stroke-width:1.058;stroke-linecap:round;stroke-linejoin:round;stroke-miterlimit:4;stroke-dasharray:none"
           id="path86496"
           cx="157.60303"
           cy="131.20467"
           r="6.1323905" />
        <circle
           style="opacity:1;fill:#000000;fill-opacity:1;fill-rule:evenodd;stroke:none;stroke-width:0.514414;stroke-linecap:round;stroke-linejoin:round;stroke-miterlimit:4;stroke-dasharray:none"
           id="circle87669"
           cx="157.60303"
           cy="131.20467"
           r="2.9816492" />
        <path
           id="circle87769"
           style="opacity:1;fill:#ffffff;fill-rule:evenodd;stroke:none;stroke-width:0.305976;stroke-linecap:round;stroke-linejoin:round;filter:url(#filter87896)"
           d="m 596.98828,491.41797 a 1.7734992,1.7734992 0 0 0 -1.77344,1.77344 1.7734992,1.7734992 0 0 0 1.77344,1.77343 1.7734992,1.7734992 0 0 0 1.77344,-1.77343 1.7734992,1.7734992 0 0 0 -1.77344,-1.77344 z m -3.91211,7.67383 a 0.80257606,0.80257606 0 0 0 -0.80273,0.80273 0.80257606,0.80257606 0 0 0 0.80273,0.80274 0.80257606,0.80257606 0 0 0 0.80274,-0.80274 0.80257606,0.80257606 0 0 0 -0.80274,-0.80273 z"
           transform="scale(0.26458333)" />
        <path
           style="font-variation-settings:normal;opacity:1;vector-effect:none;fill:url(#linearGradient111752);fill-opacity:1;stroke:none;stroke-width:1.05833;stroke-linecap:butt;stroke-linejoin:miter;stroke-miterlimit:4;stroke-dasharray:none;stroke-dashoffset:0;stroke-opacity:1;-inkscape-stroke:none;stop-color:#000000;stop-opacity:1"
           d="m 124.31853,147.60999 c -2.04396,-3.38892 -6.5572,-5.59003 -8.35595,-9.36809 -0.83101,-1.74542 -2.52238,-4.6349 -0.92594,-5.72506 2.02377,-1.38197 4.85728,1.77796 6.33252,3.73478 2.35479,3.1235 1.39373,6.52866 2.94937,11.35837 z"
           id="path111345"
           sodipodi:nodetypes="caaac" />
        <path
           id="path111923"
           style="font-variation-settings:normal;opacity:1;vector-effect:none;fill:#000000;fill-opacity:1;stroke:none;stroke-width:3.99999;stroke-linecap:butt;stroke-linejoin:miter;stroke-miterlimit:4;stroke-dasharray:none;stroke-dashoffset:0;stroke-opacity:1;-inkscape-stroke:none;stop-color:#000000;stop-opacity:1"
           d="m 438.95703,499.56836 c -1.45387,-0.006 -2.85917,0.38547 -4.17383,1.2832 -3.61149,2.46618 -2.77009,7.36887 -0.83984,12.32227 7.82284,4.36714 17.23539,6.94704 24.66602,6.82226 0.95624,-0.0161 1.9602,-0.15589 2.97265,-0.40234 -0.77801,-1.56648 -1.71597,-3.10511 -2.86328,-4.62695 -4.61739,-6.1247 -12.75673,-15.36841 -19.76172,-15.39844 z"
           transform="scale(0.26458333)" />
        <path
           style="font-variation-settings:normal;opacity:1;vector-effect:none;fill:#dfdfdf;fill-opacity:1;stroke:none;stroke-width:1.05833;stroke-linecap:butt;stroke-linejoin:miter;stroke-miterlimit:4;stroke-dasharray:none;stroke-dashoffset:0;stroke-opacity:1;-inkscape-stroke:none;stop-color:#000000;stop-opacity:1"
           d="m 120.13892,123.21521 c 2.9171,1.47524 3.35712,5.03258 4.66508,7.62712 17.57079,1.38573 34.26968,-9.67434 51.12522,-5.23488 -2.95103,-5.71681 -5.06412,-12.04961 -11.16393,-15.45164 -13.36117,2.37266 -23.7619,7.98794 -33.79554,14.00529 -2.5309,-2.33299 -3.91479,-6.81008 -10.83083,-0.94589 z"
           id="path118857"
           sodipodi:nodetypes="cccccc" />
        <path
           id="path151166"
           style="color:#000000;fill:#000000;stroke-width:3.77953;-inkscape-stroke:none"
           d="m 590.37305,573.92773 c -36.66958,3.07337 -77.65815,2.68681 -115.13477,6.90235 -36.54102,4.11029 -69.76566,12.59346 -92.40234,33.0332 0.0924,-0.0499 0.16354,-0.1198 0.25781,-0.16797 0,0 1.0677,0.008 1.38477,0.0137 22.3654,-19.57905 54.94708,-27.8712 90.87109,-31.9121 37.39147,-4.20594 78.36888,-3.81554 115.10547,-6.89454 z"
           transform="scale(0.26458333)" />
      </g>
    </g>
  </g>
    
    
</svg>
